Wide-Bold.sfdir
StartChar: exclam
Encoding: 33 33 63
Width: 1000
Flags: MW
LayerCount: 2
Back
Fore
SplineSet
401 65 m 0
 401 79 418 92 439 113 c 0
 456 131 474 170 499 170 c 0
 511 170 517 157 529 143 c 0
 574 89 599 89 599 63 c 0
 599 37 564 20 549 3 c 0
 533 -15 518 -50 500 -50 c 0
 488 -50 458 -19 445 1 c 0
 433 19 401 38 401 65 c 0
431 688 m 0
 431 712 460 726 505 726 c 0
 549 726 574 720 574 694 c 0
 574 687 571 679 566 655 c 0
 548 557 553 457 514 247 c 0
 512 240 508 236 493 236 c 0
 481 236 475 239 475 245 c 0
 437 543 451 484 445 544 c 0
 437 614 431 642 431 688 c 0
EndSplineSet
EndChar
StartChar: quotedbl
Encoding: 34 34 64
Width: 1000
Flags: MW
LayerCount: 2
Back
Fore
SplineSet
318 689 m 0
 318 701 335 717 352 738 c 0
 367 756 380 785 402 785 c 0
 412 785 486 740 486 617 c 0
 486 434 373 355 348 355 c 0
 338 355 332 368 332 373 c 0
 332 402 388 413 388 526 c 0
 388 646 318 635 318 689 c 0
514 689 m 0
 514 701 531 717 548 738 c 0
 563 756 574 785 596 785 c 0
 606 785 682 740 682 617 c 0
 682 434 569 355 544 355 c 0
 534 355 526 368 526 373 c 0
 526 402 582 413 582 526 c 0
 582 646 514 635 514 689 c 0
EndSplineSet
EndChar
StartChar: numbersign
Encoding: 35 35 65
Width: 1000
Flags: MW
LayerCount: 2
Back
Fore
SplineSet
244 137 m 2
 244 142 l 2
 244 163 244 174 258 174 c 2
 354 174 l 2
 357 174 358 174 358 176 c 0
 365 214 380 286 380 290 c 0
 380 293 377 294 372 294 c 2
 262 294 l 2
 251 294 244 297 244 324 c 0
 244 345 249 358 264 358 c 2
 382 358 l 2
 389 358 392 360 392 365 c 0
 426 551 422 549 426 554 c 0
 431 560 438 561 456 561 c 0
 465 561 482 560 482 549 c 0
 482 543 456 369 456 363 c 0
 456 359 456 358 462 358 c 2
 584 358 l 2
 589 358 593 359 594 365 c 0
 626 551 626 551 630 555 c 0
 636 561 646 561 664 561 c 0
 676 561 688 561 688 551 c 0
 688 542 650 372 650 363 c 0
 650 360 651 358 656 358 c 2
 734 358 l 2
 750 358 756 346 756 320 c 0
 756 297 748 294 738 294 c 2
 646 294 l 2
 641 294 641 292 640 289 c 0
 633 253 620 182 620 179 c 0
 620 176 622 174 628 174 c 2
 736 174 l 2
 747 174 756 171 756 144 c 0
 756 121 751 110 736 110 c 2
 622 110 l 2
 612 110 611 106 610 100 c 0
 572 -77 582 -77 540 -77 c 0
 519 -77 512 -71 512 -64 c 0
 512 -58 546 99 546 104 c 0
 546 109 543 110 538 110 c 2
 456 110 l 2
 408 110 407 108 406 102 c 0
 378 -69 377 -66 376 -69 c 0
 370 -75 361 -77 340 -77 c 0
 326 -77 314 -74 314 -64 c 0
 314 -58 348 98 348 103 c 0
 348 108 345 110 336 110 c 2
 258 110 l 2
 245 110 244 122 244 137 c 2
416 178 m 0
 416 175 420 174 426 174 c 2
 548 174 l 2
 553 174 561 174 562 180 c 0
 579 260 584 283 584 290 c 0
 584 293 585 294 578 294 c 2
 454 294 l 2
 447 294 445 291 444 288 c 0
 435 252 416 182 416 178 c 0
EndSplineSet
EndChar
StartChar: dollar
Encoding: 36 36 66
Width: 1000
Flags: MW
LayerCount: 2
Back
Fore
SplineSet
248 92 m 0
 248 94 252 167 275 167 c 0
 299 167 305 141 329 104 c 0
 353 68 413 37 457 37 c 0
 467 37 469 43 469 52 c 0
 469 181 474 170 474 290 c 0
 474 303 450 311 431 316 c 0
 358 336 271 372 271 535 c 0
 271 635 367 679 470 690 c 0
 480 691 486 694 486 714 c 0
 486 726 484 759 484 770 c 0
 484 787 494 794 518 794 c 0
 550 794 550 785 550 767 c 0
 550 727 549 706 549 700 c 0
 549 692 550 686 554 686 c 0
 674 671 706 599 706 591 c 0
 706 571 688 521 674 521 c 0
 667 521 662 526 660 531 c 0
 639 571 593 623 552 623 c 0
 543 623 543 612 543 604 c 0
 543 547 539 495 539 434 c 0
 539 413 540 409 554 406 c 0
 689 374 752 296 752 189 c 0
 752 51 633 -2 550 -21 c 0
 528 -26 526 -24 526 -40 c 2
 526 -58 l 1
 526 -120 l 2
 526 -157 519 -161 493 -161 c 0
 464 -161 461 -151 461 -140 c 0
 461 -107 466 -66 466 -42 c 0
 466 -36 466 -23 459 -23 c 0
 384 -23 293 18 261 54 c 0
 249 67 248 78 248 92 c 0
360 517 m 0
 360 462 399 454 464 438 c 1
 467 438 l 2
 479 438 481 448 481 454 c 0
 481 493 483 534 483 613 c 0
 483 620 477 624 471 624 c 0
 449 624 360 620 360 517 c 0
528 49 m 0
 528 40 529 36 534 36 c 0
 540 36 662 28 662 175 c 0
 662 252 543 277 540 277 c 0
 535 277 534 256 534 247 c 0
 534 140 528 156 528 49 c 0
EndSplineSet
EndChar
StartChar: percent
Encoding: 37 37 67
Width: 1000
Flags: MW
LayerCount: 2
Back
Fore
SplineSet
115 350 m 0
 115 451 210 593 353 593 c 0
 443 593 458 536 532 536 c 0
 629 536 748 615 784 640 c 0
 791 645 799 647 805 647 c 0
 813 647 816 643 816 638 c 0
 816 631 810 622 807 617 c 0
 346 0 284 -85 270 -89 c 0
 267 -90 261 -91 258 -91 c 0
 238 -91 220 -78 220 -67 c 0
 220 -53 231 -42 267 4 c 2
 460 244 l 2
 610 430 662 504 662 512 c 0
 662 515 659 516 657 516 c 0
 649 516 617 491 544 491 c 0
 515 491 490 500 485 500 c 0
 484 500 484 500 484 499 c 0
 484 497 487 490 487 480 c 0
 487 405 476 365 424 302 c 0
 396 267 347 220 250 220 c 0
 206 220 115 258 115 350 c 0
223 373 m 0
 223 303 245 261 283 261 c 0
 352 261 389 373 389 461 c 0
 389 511 371 549 342 549 c 0
 262 549 223 454 223 373 c 0
510 70 m 0
 510 178 600 309 753 309 c 0
 846 309 885 252 885 181 c 0
 885 68 787 -78 658 -78 c 0
 558 -78 510 -9 510 70 c 0
617 83 m 0
 617 14 639 -30 677 -30 c 0
 741 -30 786 83 786 170 c 0
 786 219 765 262 736 262 c 0
 656 262 617 164 617 83 c 0
EndSplineSet
EndChar
StartChar: ampersand
Encoding: 38 38 68
Width: 1000
Flags: MW
LayerCount: 2
Back
Fore
SplineSet
2 234 m 0
 2 281 24 339 56 368 c 0
 129 436 201 457 201 465 c 0
 201 477 149 485 149 575 c 0
 149 675 266 713 357 713 c 0
 423 713 449 678 469 678 c 0
 478 678 483 683 493 683 c 0
 510 683 511 670 511 659 c 0
 511 656 515 613 515 591 c 0
 515 551 514 549 504 549 c 0
 483 549 435 657 347 657 c 0
 277 657 254 612 254 585 c 0
 254 536 346 457 433 384 c 0
 547 288 665 203 678 203 c 0
 691 203 707 226 707 273 c 0
 707 338 663 347 626 358 c 0
 599 372 573 358 573 385 c 0
 573 400 578 402 604 402 c 0
 678 402 622 400 788 400 c 0
 804 400 811 395 811 387 c 0
 811 366 775 384 771 331 c 0
 769 305 764 270 762 252 c 0
 756 208 726 164 726 155 c 0
 726 142 830 79 906 41 c 0
 926 31 940 31 949 31 c 0
 962 31 975 36 985 36 c 0
 993 36 998 30 998 22 c 0
 998 -11 948 -35 889 -35 c 0
 733 -35 647 57 636 57 c 0
 615 57 557 -40 339 -40 c 0
 244 -40 2 -12 2 234 c 0
101 286 m 0
 101 202 191 62 410 62 c 0
 513 62 591 115 591 124 c 0
 591 134 495 185 339 325 c 0
 240 413 231 426 218 426 c 0
 179 426 101 373 101 286 c 0
EndSplineSet
EndChar
StartChar: quotesingle
Encoding: 39 39 69
Width: 1000
Flags: MW
LayerCount: 2
Back
Fore
SplineSet
416 689 m 0
 416 701 433 717 450 738 c 0
 465 756 478 785 500 785 c 0
 510 785 584 740 584 617 c 0
 584 434 471 355 446 355 c 0
 436 355 430 368 430 373 c 0
 430 402 486 413 486 526 c 0
 486 646 416 635 416 689 c 0
EndSplineSet
EndChar
StartChar: parenleft
Encoding: 40 40 70
Width: 1000
Flags: MW
LayerCount: 2
Back
Fore
SplineSet
719 278 m 0
 719 593 939 772 962 772 c 0
 982 772 985 762 985 751 c 0
 985 722 787 623 787 277 c 0
 787 -41 982 -168 982 -195 c 0
 982 -208 967 -214 960 -214 c 0
 924 -214 719 0 719 278 c 0
EndSplineSet
EndChar
StartChar: asterisk
Encoding: 42 42 72
Width: 1000
Flags: MW
LayerCount: 2
Back
Fore
SplineSet
327 367 m 0
 327 394 435 436 435 447 c 0
 435 461 327 503 327 529 c 0
 327 540 339 572 359 572 c 0
 375 572 442 519 451 519 c 0
 454 519 456 524 456 538 c 0
 456 559 452 591 452 617 c 0
 452 634 459 638 491 638 c 0
 536 638 547 636 547 602 c 0
 547 584 541 557 541 537 c 0
 541 523 543 519 546 519 c 0
 557 519 627 573 639 573 c 0
 657 573 673 545 673 530 c 0
 673 504 564 460 564 448 c 0
 564 433 673 393 673 367 c 0
 673 355 660 324 639 324 c 0
 624 324 555 377 548 377 c 0
 544 377 542 372 542 358 c 0
 542 339 547 315 547 300 c 0
 547 262 543 258 493 258 c 0
 470 258 452 261 452 282 c 0
 452 300 456 331 456 354 c 0
 456 371 455 377 451 377 c 0
 442 377 371 324 359 324 c 0
 340 324 327 355 327 367 c 0
EndSplineSet
EndChar
StartChar: plus
Encoding: 43 43 73
Width: 1000
Flags: MW
LayerCount: 2
Back
Fore
SplineSet
257 213 m 0
 257 233 257 243 275 243 c 2
 445 243 l 2
 464 243 467 251 467 262 c 2
 467 438 l 2
 467 453 478 453 499 453 c 0
 520 453 535 453 535 433 c 2
 535 270 l 2
 535 256 536 243 552 243 c 2
 729 243 l 2
 745 243 745 232 745 211 c 0
 745 185 745 176 724 176 c 2
 552 176 l 2
 535 176 535 170 535 158 c 2
 535 -17 l 2
 535 -34 522 -34 505 -34 c 0
 475 -34 467 -34 467 -16 c 2
 467 158 l 2
 467 176 460 176 443 176 c 2
 274 176 l 2
 247 176 257 187 257 213 c 0
EndSplineSet
EndChar
StartChar: hyphen
Encoding: 45 45 75
Width: 1000
Flags: MW
LayerCount: 2
Back
Fore
SplineSet
311 119 m 2
 311 135 l 2
 311 198 329 200 397 220 c 0
 589 277 623 304 656 304 c 0
 683 304 689 280 689 253 c 2
 689 244 l 2
 689 185 673 195 543 153 c 0
 407 108 371 87 335 87 c 0
 313 87 311 101 311 119 c 2
EndSplineSet
EndChar
StartChar: slash
Encoding: 47 47 77
Width: 1000
Flags: MW
LayerCount: 2
Back
Fore
SplineSet
37 -170 m 0
 37 -161 44 -127 57 -113 c 2
 57 -113 871 711 875 717 c 0
 886 731 895 735 914 735 c 0
 924 735 948 733 948 723 c 0
 948 714 948 694 934 679 c 2
 124 -152 l 2
 105 -171 98 -183 76 -183 c 0
 58 -183 37 -183 37 -170 c 0
EndSplineSet
EndChar
StartChar: zero
Encoding: 48 48 0
Width: 1000
Flags: MW
LayerCount: 2
Back
Fore
SplineSet
177 323 m 0
 177 575 337 727 523 727 c 0
 724 727 823 563 823 364 c 0
 823 156 713 -26 493 -26 c 0
 247 -26 177 145 177 323 c 0
286 403 m 0
 286 239 390 56 561 56 c 0
 669 56 721 150 721 290 c 0
 721 448 629 616 451 616 c 0
 351 616 286 535 286 403 c 0
EndSplineSet
EndChar
StartChar: one
Encoding: 49 49 1
Width: 1000
Flags: MW
LayerCount: 2
Back
Fore
SplineSet
270 600 m 0
 270 616 288 630 314 640 c 0
 359 652 372 646 454 674 c 0
 508 693 533 722 556 722 c 0
 579 722 580 707 580 699 c 0
 580 691 566 659 566 648 c 0
 561 606 550 519 550 316 c 0
 550 215 546 156 546 120 c 0
 546 0 730 61 730 17 c 0
 730 4 705 2 680 2 c 2
 500 2 l 2
 436 2 364 -2 322 -2 c 0
 294 -2 280 4 280 22 c 0
 280 45 304 51 328 51 c 2
 344 51 l 2
 420 51 420 84 420 89 c 0
 432 148 438 252 438 348 c 2
 438 541 l 2
 438 576 431 600 386 600 c 0
 346 600 304 577 286 577 c 0
 283 577 270 584 270 600 c 0
EndSplineSet
EndChar
StartChar: two
Encoding: 50 50 2
Width: 1000
Flags: MW
LayerCount: 2
Back
Fore
SplineSet
188 -9 m 2
 188 -6 l 2
 188 25 347 92 524 349 c 0
 563 407 590 477 590 536 c 0
 590 591 530 632 434 632 c 0
 287 632 244 572 214 572 c 0
 206 572 202 580 202 589 c 0
 202 601 289 736 484 736 c 0
 595 736 716 691 716 595 c 0
 716 416 374 129 374 109 c 0
 374 99 419 97 462 97 c 0
 698 97 661 99 698 110 c 0
 741 123 773 162 794 162 c 0
 804 162 812 155 812 149 c 0
 812 139 706 -1 706 -1 c 2
 691 -18 678 -22 664 -22 c 0
 492 -22 485 -19 414 -19 c 0
 378 -19 279 -22 238 -22 c 0
 190 -22 188 -17 188 -9 c 2
EndSplineSet
EndChar
StartChar: three
Encoding: 51 51 3
Width: 1000
Flags: MW
LayerCount: 2
Back
Fore
SplineSet
194 52 m 0
 194 57 198 71 226 71 c 0
 248 71 280 26 412 26 c 0
 607 26 680 155 680 220 c 0
 680 290 634 360 469 360 c 0
 439 360 426 356 422 356 c 0
 405 356 401 364 401 370 c 0
 401 382 422 379 525 430 c 0
 585 460 620 504 620 543 c 0
 620 592 561 634 482 634 c 0
 384 634 311 576 282 576 c 0
 271 576 269 582 269 588 c 0
 269 648 414 725 518 725 c 0
 626 725 736 688 736 604 c 0
 736 530 677 494 614 451 c 0
 600 442 591 436 591 431 c 0
 591 424 651 428 711 395 c 0
 768 364 806 322 806 257 c 0
 806 89 629 -33 428 -33 c 0
 315 -33 194 12 194 52 c 0
EndSplineSet
EndChar
StartChar: four
Encoding: 52 52 4
Width: 1000
Flags: MW
LayerCount: 2
Back
Fore
SplineSet
120 205 m 0
 120 232 138 246 568 627 c 0
 619 672 665 727 701 727 c 0
 716 727 730 721 730 707 c 0
 730 701 712 370 712 322 c 0
 712 301 712 297 732 297 c 0
 836 297 829 329 862 329 c 0
 866 329 880 326 880 310 c 0
 880 292 871 274 864 250 c 0
 861 239 855 187 824 187 c 0
 800 187 756 192 735 192 c 0
 716 192 708 186 708 172 c 0
 708 136 712 102 712 39 c 0
 712 -41 713 -22 713 -49 c 0
 713 -99 712 -91 658 -102 c 0
 637 -106 614 -108 608 -108 c 0
 584 -108 575 -89 575 -81 c 0
 575 -71 600 -39 600 185 c 0
 600 191 590 191 580 191 c 2
 360 191 l 2
 288 191 225 187 171 187 c 0
 137 187 120 189 120 205 c 0
324 302 m 0
 324 294 342 292 365 292 c 2
 558 292 l 2
 599 292 602 297 602 314 c 0
 602 322 608 473 608 536 c 0
 608 555 603 565 599 565 c 0
 589 565 324 326 324 302 c 0
EndSplineSet
EndChar
StartChar: five
Encoding: 53 53 5
Width: 1000
Flags: MW
LayerCount: 2
Back
Fore
SplineSet
201 20 m 0
 201 33 211 39 222 39 c 0
 253 39 272 17 390 17 c 0
 563 17 676 113 676 225 c 0
 676 304 607 373 451 373 c 0
 355 373 343 359 318 359 c 0
 289 359 284 378 284 386 c 0
 284 412 320 527 349 676 c 0
 352 691 364 704 397 704 c 0
 681 706 691 696 721 718 c 0
 746 731 752 743 770 743 c 0
 780 743 788 735 788 728 c 0
 788 723 786 715 783 708 c 0
 723 600 723 591 690 591 c 0
 679 591 629 593 590 593 c 0
 477 593 399 586 395 582 c 0
 382 567 359 500 359 484 c 0
 359 478 366 473 370 473 c 0
 374 473 398 486 497 486 c 0
 591 486 675 458 721 420 c 0
 775 376 799 320 799 278 c 0
 799 63 589 -40 411 -40 c 0
 338 -40 201 -24 201 20 c 0
EndSplineSet
EndChar
StartChar: six
Encoding: 54 54 6
Width: 1000
Flags: MW
LayerCount: 2
Back
Fore
SplineSet
175 245 m 0
 175 599 665 734 766 734 c 0
 785 734 791 723 791 716 c 0
 791 686 701 713 539 616 c 0
 392 528 341 430 341 395 c 0
 341 389 343 384 347 384 c 0
 362 384 400 459 554 459 c 0
 706 459 825 367 825 230 c 0
 825 82 686 -33 510 -33 c 0
 478 -33 402 -30 340 4 c 0
 275 39 175 111 175 245 c 0
299 236 m 0
 299 181 348 30 544 30 c 0
 664 30 719 105 719 186 c 0
 719 284 639 390 489 390 c 0
 426 390 325 353 310 305 c 0
 304 284 299 266 299 236 c 0
EndSplineSet
EndChar
StartChar: seven
Encoding: 55 55 7
Width: 1000
Flags: MW
LayerCount: 2
Back
Fore
SplineSet
220 550 m 0
 220 597 246 649 254 695 c 0
 255 706 271 710 278 710 c 0
 327 710 328 704 522 704 c 2
 568 704 l 2
 702 704 715 707 742 707 c 0
 765 707 780 698 780 685 c 0
 780 534 524 226 524 58 c 0
 524 -27 555 -43 555 -61 c 0
 555 -86 474 -94 462 -94 c 0
 421 -94 386 -85 386 -6 c 0
 386 149 602 371 666 491 c 0
 688 533 700 566 700 581 c 0
 700 585 690 594 671 594 c 0
 663 594 652 595 642 595 c 0
 624 595 536 593 465 593 c 0
 438 593 440 594 419 594 c 0
 306 594 284 568 268 535 c 0
 262 521 252 501 238 501 c 0
 224 501 220 522 220 550 c 0
EndSplineSet
EndChar
StartChar: eight
Encoding: 56 56 8
Width: 1000
Flags: MW
LayerCount: 2
Back
Fore
SplineSet
194 178 m 0
 194 329 340 357 340 363 c 0
 340 373 242 413 242 529 c 0
 242 652 374 720 516 720 c 0
 719 720 768 623 768 555 c 0
 768 412 628 412 628 404 c 0
 628 391 806 348 806 193 c 0
 806 108 745 -30 496 -30 c 0
 332 -30 194 41 194 178 c 0
280 205 m 0
 280 91 407 28 522 28 c 0
 619 28 708 76 708 148 c 0
 708 186 657 233 622 252 c 0
 537 299 453 335 426 335 c 0
 374 335 280 279 280 205 c 0
338 571 m 0
 338 496 524 435 550 435 c 0
 603 435 682 467 682 547 c 0
 682 585 642 662 508 662 c 0
 436 662 338 659 338 571 c 0
EndSplineSet
EndChar
StartChar: nine
Encoding: 57 57 9
Width: 1000
Flags: MW
LayerCount: 2
Back
Fore
SplineSet
175 462 m 0
 175 598 298 721 493 721 c 0
 691 721 825 596 825 445 c 0
 825 313 737 153 549 56 c 0
 431 -6 296 -36 233 -36 c 0
 210 -36 210 -24 210 -16 c 0
 210 -10 210 1 232 6 c 0
 319 18 429 62 523 128 c 0
 598 181 656 273 656 292 c 0
 656 297 653 298 650 298 c 0
 637 298 571 228 466 228 c 0
 272 228 175 343 175 462 c 0
286 513 m 0
 286 416 377 301 506 301 c 0
 646 301 696 373 696 453 c 0
 696 540 615 654 468 654 c 0
 342 654 286 588 286 513 c 0
EndSplineSet
EndChar
StartChar: colon
Encoding: 58 58 78
Width: 1000
Flags: MW
LayerCount: 2
Back
Fore
SplineSet
392 55 m 0
 392 64 422 80 446 94 c 0
 466 106 479 127 508 127 c 0
 520 127 538 109 562 90 c 0
 576 80 608 65 608 55 c 0
 608 43 577 33 554 19 c 0
 536 7 521 -16 500 -16 c 0
 476 -16 458 11 438 21 c 0
 412 33 392 45 392 55 c 0
404 336 m 0
 404 345 426 360 448 373 c 0
 468 384 479 406 506 406 c 0
 518 406 545 382 560 369 c 0
 572 359 598 349 598 335 c 0
 598 324 575 314 554 301 c 0
 536 290 524 268 500 268 c 0
 476 268 462 294 448 303 c 0
 427 317 404 327 404 336 c 0
EndSplineSet
EndChar
StartChar: semicolon
Encoding: 59 59 79
Width: 1000
Flags: MW
LayerCount: 2
Back
Fore
SplineSet
392 341 m 0
 392 355 416 377 438 397 c 0
 458 414 462 448 494 448 c 0
 506 448 535 411 550 391 c 0
 562 376 592 359 592 338 c 0
 592 321 569 307 548 287 c 0
 530 270 514 237 490 237 c 0
 466 237 452 277 438 291 c 0
 417 312 392 327 392 341 c 0
394 18 m 0
 394 32 420 42 442 57 c 0
 460 69 470 89 504 89 c 0
 511 89 608 51 608 -36 c 0
 608 -130 470 -204 430 -204 c 0
 424 -204 412 -197 412 -189 c 0
 412 -168 504 -153 504 -84 c 0
 504 -46 470 -27 422 -3 c 0
 397 9 394 8 394 18 c 0
EndSplineSet
EndChar
StartChar: less
Encoding: 60 60 80
Width: 1000
Flags: MW
LayerCount: 2
Back
Fore
SplineSet
277 211 m 0
 277 222 277 226 292 232 c 0
 699 389 698 391 704 391 c 0
 713 391 723 385 723 353 c 0
 723 339 715 332 707 329 c 2
 402 226 l 2
 383 220 360 212 360 207 c 0
 360 202 382 196 402 190 c 2
 712 87 l 2
 718 84 723 78 723 67 c 0
 723 55 717 31 699 31 c 0
 693 31 696 31 291 187 c 0
 277 192 277 196 277 211 c 0
EndSplineSet
EndChar
StartChar: equal
Encoding: 61 61 81
Width: 1000
Flags: MW
LayerCount: 2
Back
Fore
SplineSet
268 114 m 0
 268 134 268 146 286 146 c 2
 717 146 l 2
 733 146 733 135 733 114 c 0
 733 88 733 78 712 78 c 2
 285 78 l 2
 258 78 268 88 268 114 c 0
268 311 m 0
 268 331 268 341 286 341 c 2
 717 341 l 2
 733 341 733 330 733 309 c 0
 733 283 733 274 712 274 c 2
 285 274 l 2
 258 274 268 285 268 311 c 0
EndSplineSet
EndChar
StartChar: greater
Encoding: 62 62 82
Width: 1000
Flags: MW
LayerCount: 2
Back
Fore
SplineSet
277 67 m 0
 277 78 281 84 287 87 c 2
 598 190 l 2
 618 196 640 202 640 207 c 0
 640 212 617 220 598 226 c 2
 292 329 l 2
 284 332 277 339 277 353 c 0
 277 385 286 391 295 391 c 0
 301 391 300 389 707 232 c 0
 722 226 723 222 723 211 c 0
 723 196 722 192 708 187 c 0
 303 31 306 31 300 31 c 0
 282 31 277 55 277 67 c 0
EndSplineSet
EndChar
StartChar: question
Encoding: 63 63 83
Width: 1000
Flags: MW
LayerCount: 2
Back
Fore
SplineSet
351 605 m 0
 351 630 407 684 481 684 c 0
 564 684 649 647 649 574 c 0
 649 480 467 380 467 278 c 0
 467 260 474 244 474 234 c 0
 474 228 471 224 462 224 c 0
 429 224 414 276 414 296 c 0
 414 360 524 487 524 544 c 0
 524 597 450 616 422 616 c 0
 389 616 370 593 361 593 c 0
 354 593 351 601 351 605 c 0
373 57 m 0
 373 71 398 99 415 119 c 0
 430 137 444 167 460 167 c 0
 472 167 496 120 501 114 c 0
 506 108 541 77 541 62 c 0
 541 36 514 25 501 8 c 0
 487 -10 473 -45 458 -45 c 0
 448 -45 423 -15 411 5 c 0
 401 23 373 36 373 57 c 0
EndSplineSet
EndChar
StartChar: at
Encoding: 64 64 84
Width: 1000
Flags: MW
LayerCount: 2
Back
Fore
SplineSet
91 285 m 0
 91 633 425 707 559 707 c 0
 770 707 909 563 909 390 c 0
 909 236 790 117 659 117 c 0
 519 117 576 218 566 218 c 0
 556 218 495 91 396 91 c 0
 324 91 294 135 294 195 c 0
 294 316 412 496 547 496 c 0
 582 496 616 482 626 482 c 0
 642 482 649 524 672 524 c 0
 681 524 681 514 681 505 c 0
 681 492 632 329 632 256 c 2
 632 243 l 2
 632 214 643 185 673 185 c 0
 769 185 847 254 847 398 c 0
 847 562 716 649 560 649 c 0
 352 649 181 510 181 297 c 0
 181 114 317 -18 520 -18 c 0
 672 -18 738 33 751 33 c 0
 756 33 763 30 763 21 c 0
 763 2 657 -74 490 -74 c 0
 260 -74 91 56 91 285 c 0
395 231 m 0
 395 191 423 175 457 175 c 0
 500 175 540 209 548 220 c 0
 559 235 562 242 573 282 c 0
 587 332 613 425 613 428 c 0
 613 436 575 447 551 447 c 0
 497 447 395 369 395 231 c 0
EndSplineSet
EndChar
StartChar: B
Encoding: 66 66 11
Width: 1000
Flags: MW
LayerCount: 2
Back
Fore
SplineSet
168 686 m 0
 168 695 171 709 178 709 c 0
 189 709 189 708 222 708 c 0
 262 708 362 709 382 709 c 0
 429 709 465 714 504 714 c 0
 629 714 738 657 738 545 c 0
 738 439 602 402 602 396 c 0
 602 384 832 378 832 206 c 0
 832 149 788 72 736 41 c 0
 665 -2 614 -11 536 -11 c 0
 457 -11 359 5 330 5 c 0
 302 5 269 -1 230 -1 c 2
 214 -1 l 2
 202 -1 190 2 190 22 c 0
 190 28 192 43 202 43 c 0
 213 43 217 44 224 44 c 0
 238 44 265 60 268 133 c 0
 272 195 272 324 272 431 c 2
 272 594 l 2
 272 603 267 668 184 668 c 0
 178 668 168 668 168 686 c 0
386 104 m 0
 386 51 451 49 486 49 c 2
 508 49 l 2
 538 49 570 50 596 54 c 0
 659 63 694 119 694 189 c 0
 694 347 539 354 506 354 c 0
 412 354 423 357 414 357 c 0
 393 357 388 356 388 208 c 2
 388 200 l 2
 388 123 386 113 386 104 c 0
396 540 m 2
 396 419 399 409 408 408 c 0
 425 406 427 405 452 405 c 2
 510 405 l 2
 589 405 618 454 618 513 c 4
 618 568 570 660 442 660 c 0
 407 660 396 649 396 566 c 2
 396 540 l 2
EndSplineSet
EndChar
StartChar: C
Encoding: 67 67 12
Width: 1000
Flags: MW
LayerCount: 2
Back
Fore
SplineSet
130 322 m 0
 130 541 271 724 536 724 c 0
 683 724 802 631 812 631 c 0
 819 631 825 641 834 641 c 0
 840 641 850 636 850 625 c 0
 852 561 866 502 866 490 c 0
 866 475 858 473 854 473 c 0
 848 473 840 479 836 486 c 0
 778 591 686 662 556 662 c 0
 391 662 272 550 272 383 c 0
 272 208 361 38 604 38 c 0
 728 38 806 124 846 183 c 0
 850 190 853 189 860 189 c 0
 866 189 870 182 870 174 c 0
 870 148 854 90 850 67 c 0
 848 57 843 52 834 48 c 0
 741 2 669 -32 558 -32 c 0
 235 -32 130 160 130 322 c 0
EndSplineSet
EndChar
StartChar: D
Encoding: 68 68 13
Width: 1000
Flags: MW
LayerCount: 2
Back
Fore
SplineSet
94 702 m 0
 94 720 103 721 150 721 c 2
 248 721 l 2
 307 721 390 727 466 727 c 0
 667 727 906 613 906 391 c 0
 906 191 841 129 744 55 c 0
 707 27 614 -13 516 -13 c 0
 489 -13 329 -6 248 -6 c 0
 181 -6 158 -13 136 -13 c 0
 112 -13 108 -5 108 7 c 0
 108 34 124 30 144 42 c 0
 165 51 186 80 186 105 c 0
 186 208 188 285 188 368 c 0
 188 447 186 498 186 614 c 0
 186 635 161 664 134 666 c 0
 113 668 94 668 94 702 c 0
312 146 m 0
 312 63 324 75 404 53 c 0
 425 47 450 43 476 43 c 2
 496 43 l 2
 589 43 647 68 704 121 c 0
 760 173 778 269 778 344 c 0
 778 561 590 661 436 661 c 0
 317 661 318 660 318 538 c 0
 318 500 314 370 314 352 c 0
 314 251 312 187 312 146 c 0
EndSplineSet
EndChar
StartChar: E
Encoding: 69 69 14
Width: 1000
Flags: MW
LayerCount: 2
Back
Fore
SplineSet
182 707 m 0
 182 725 205 728 214 728 c 0
 223 728 234 725 245 725 c 0
 272 725 410 717 523 717 c 0
 569 717 716 724 750 724 c 0
 758 724 772 721 772 698 c 0
 772 676 760 640 760 584 c 0
 760 571 748 560 736 560 c 0
 724 560 713 566 713 579 c 0
 713 611 687 643 651 645 c 0
 584 650 564 651 507 651 c 2
 480 651 l 2
 407 651 409 650 406 595 c 0
 403 562 400 485 400 443 c 0
 400 427 401 397 419 396 c 2
 445 396 l 1
 487 396 l 1
 519 396 l 2
 606 396 618 401 637 413 c 0
 654 424 658 437 660 447 c 0
 663 456 666 463 681 463 c 0
 699 463 701 459 701 446 c 0
 701 427 688 372 688 335 c 0
 688 299 693 291 693 271 c 0
 693 246 687 245 682 245 c 0
 664 245 655 254 649 267 c 0
 643 283 639 303 624 312 c 0
 603 325 532 324 528 324 c 0
 441 324 451 326 440 326 c 0
 419 326 398 324 398 309 c 0
 398 257 395 228 395 176 c 2
 395 139 l 2
 395 109 403 71 421 66 c 0
 445 60 452 59 468 59 c 0
 838 59 774 146 805 146 c 0
 812 146 818 141 818 127 c 0
 818 59 730 -21 685 -21 c 0
 540 -21 443 -7 374 -7 c 0
 312 -7 275 -20 220 -20 c 0
 209 -20 196 -21 196 -5 c 0
 196 35 197 11 239 41 c 0
 270 56 278 81 278 233 c 2
 278 357 l 2
 278 412 282 466 282 528 c 0
 282 557 282 586 280 618 c 0
 278 660 237 679 198 680 c 0
 182 680 182 693 182 707 c 0
EndSplineSet
EndChar
StartChar: F
Encoding: 70 70 15
Width: 1000
Flags: MW
LayerCount: 2
Back
Fore
SplineSet
202 692 m 0
 202 696 205 717 232 717 c 2
 264 717 l 2
 344 717 341 708 516 708 c 0
 670 708 662 716 778 716 c 0
 786 716 798 713 798 690 c 0
 798 668 785 634 776 579 c 0
 774 566 766 558 754 558 c 0
 742 558 732 563 732 576 c 0
 732 607 720 635 684 637 c 0
 591 643 532 648 494 648 c 0
 390 648 424 633 422 591 c 0
 419 559 418 483 418 442 c 0
 418 426 418 398 436 397 c 0
 445 397 455 396 462 396 c 0
 477 396 488 397 504 397 c 2
 536 397 l 2
 622 397 631 401 650 413 c 0
 656 417 661 422 664 426 c 0
 684 444 670 461 700 461 c 0
 718 461 720 457 720 445 c 0
 720 426 706 395 706 359 c 0
 706 324 718 295 718 275 c 0
 718 250 708 249 696 249 c 0
 673 249 667 259 664 271 c 0
 661 287 661 307 642 314 c 0
 620 323 550 326 546 326 c 2
 458 326 l 2
 437 326 416 323 416 309 c 0
 416 258 414 229 414 179 c 0
 414 166 412 155 412 143 c 0
 412 120 421 50 494 50 c 0
 517 50 524 33 524 23 c 0
 524 16 518 -5 488 -5 c 0
 452 -5 406 7 376 7 c 0
 313 7 294 -2 238 -2 c 0
 226 -2 214 -2 214 14 c 0
 214 41 217 39 258 61 c 0
 322 75 294 137 296 360 c 0
 296 412 300 466 300 524 c 2
 300 579 l 2
 300 609 298 643 254 662 c 0
 232 678 202 660 202 692 c 0
EndSplineSet
EndChar
StartChar: G
Encoding: 71 71 16
Width: 1000
Flags: MW
LayerCount: 2
Back
Fore
SplineSet
80 328 m 0
 80 547 233 729 522 729 c 0
 714 729 792 639 802 639 c 0
 810 639 825 653 834 653 c 0
 845 653 850 644 850 634 c 0
 853 572 872 515 872 504 c 0
 872 489 860 488 854 488 c 0
 845 488 833 492 828 499 c 0
 779 594 648 669 526 669 c 0
 357 669 222 567 222 382 c 0
 222 207 331 34 518 34 c 0
 622 34 717 86 726 142 c 0
 728 150 730 221 730 260 c 0
 730 287 724 304 714 313 c 0
 702 324 685 326 670 328 c 0
 650 331 632 331 632 361 c 0
 632 370 637 378 654 378 c 0
 684 378 756 370 786 370 c 0
 841 370 896 372 900 372 c 0
 905 372 920 371 920 363 c 0
 920 346 866 346 860 315 c 0
 854 283 852 243 852 198 c 0
 852 105 860 92 860 81 c 0
 860 68 828 72 788 52 c 0
 774 45 657 -28 532 -28 c 0
 191 -28 80 152 80 328 c 0
EndSplineSet
EndChar
StartChar: H
Encoding: 72 72 17
Width: 1000
Flags: MW
LayerCount: 2
Back
Fore
SplineSet
86 696 m 0
 86 712 103 712 118 712 c 0
 150 712 184 706 248 706 c 0
 297 706 277 709 349 709 c 0
 357 709 374 708 374 688 c 0
 374 674 371 662 340 662 c 0
 310 662 302 583 302 547 c 2
 302 512 l 2
 302 472 300 446 300 427 c 0
 300 395 304 391 333 391 c 0
 366 391 350 392 497 392 c 0
 519 392 556 392 686 390 c 0
 696 390 697 396 697 526 c 2
 697 579 l 2
 697 706 613 658 613 696 c 0
 613 704 631 706 659 706 c 0
 687 706 726 703 772 703 c 0
 800 703 821 706 863 706 c 0
 874 706 890 701 890 686 c 0
 890 666 880 667 876 667 c 0
 838 667 820 641 820 607 c 0
 818 515 816 446 816 373 c 0
 816 327 813 281 813 229 c 2
 813 193 l 2
 813 141 819 131 819 104 c 0
 819 47 875 36 902 33 c 0
 905 33 914 31 914 16 c 0
 914 1 899 0 857 0 c 0
 830 0 802 8 768 8 c 0
 724 8 714 0 660 0 c 0
 630 0 618 0 618 12 c 0
 618 30 679 26 686 62 c 0
 691 87 692 111 692 132 c 0
 692 151 694 169 694 184 c 0
 694 219 697 259 697 302 c 0
 697 319 690 328 634 328 c 0
 608 328 518 324 512 324 c 0
 429 324 393 328 329 328 c 0
 311 328 304 326 304 294 c 0
 304 250 298 218 298 183 c 2
 298 144 l 2
 298 98 301 74 345 49 c 0
 350 46 367 44 388 44 c 0
 398 44 407 35 407 27 c 0
 407 3 390 0 371 0 c 0
 310 0 314 6 276 6 c 0
 217 6 194 -2 153 -2 c 0
 106 -2 100 5 100 13 c 0
 100 40 153 -2 174 76 c 0
 178 92 187 223 187 339 c 2
 187 395 l 2
 187 424 188 461 188 501 c 0
 188 541 187 583 182 618 c 0
 177 653 136 670 107 670 c 0
 91 670 86 692 86 696 c 0
EndSplineSet
EndChar
StartChar: I
Encoding: 73 73 18
Width: 1000
Flags: MW
LayerCount: 2
Back
Fore
SplineSet
336 688 m 0
 336 698 340 710 368 710 c 0
 400 710 434 704 498 704 c 0
 547 704 528 707 600 707 c 0
 608 707 630 705 630 686 c 0
 630 673 614 664 586 646 c 0
 559 636 554 574 554 537 c 0
 554 315 550 275 550 188 c 0
 550 130 555 100 574 74 c 0
 595 47 612 45 622 45 c 0
 625 45 639 44 642 44 c 0
 652 44 664 35 664 27 c 0
 664 3 655 0 636 0 c 0
 575 0 564 6 526 6 c 0
 467 6 443 -2 402 -2 c 0
 355 -2 350 5 350 13 c 0
 350 39 401 -2 424 76 c 0
 426 84 436 270 436 337 c 2
 436 393 l 2
 436 421 436 459 436 499 c 2
 436 544 l 2
 436 569 435 593 432 615 c 0
 427 650 386 664 358 665 c 0
 338 667 336 680 336 688 c 0
EndSplineSet
EndChar
StartChar: J
Encoding: 74 74 19
Width: 1000
Flags: MW
LayerCount: 2
Back
Fore
SplineSet
281 -158 m 0
 281 -132 301 -85 312 -85 c 0
 329 -85 333 -118 370 -118 c 0
 410 -118 431 -86 439 -42 c 0
 448 4 452 43 452 75 c 0
 452 98 451 192 451 194 c 0
 451 260 446 12 446 525 c 0
 446 561 446 596 443 621 c 0
 439 655 396 667 368 668 c 0
 348 670 346 688 346 696 c 0
 346 710 352 722 380 722 c 0
 412 722 446 714 511 714 c 0
 561 714 532 715 605 715 c 0
 613 715 637 715 637 696 c 0
 637 683 620 672 591 654 c 0
 572 647 570 617 570 586 c 2
 570 540 l 2
 570 54 567 102 567 54 c 0
 567 -103 452 -208 327 -208 c 0
 310 -208 281 -206 281 -158 c 0
EndSplineSet
EndChar
StartChar: K
Encoding: 75 75 20
Width: 1000
Flags: MW
LayerCount: 2
Back
Fore
SplineSet
92 688 m 0
 92 698 96 708 124 708 c 0
 157 708 191 705 256 705 c 0
 306 705 276 708 356 708 c 0
 364 708 376 706 376 688 c 0
 376 673 356 671 340 657 c 0
 314 643 310 581 310 546 c 0
 310 464 306 424 306 405 c 0
 306 389 307 386 314 386 c 0
 325 386 612 601 612 645 c 0
 612 665 579 666 562 670 c 0
 553 673 552 688 552 692 c 0
 552 708 564 708 574 708 c 0
 582 708 593 706 608 706 c 0
 620 706 654 704 690 704 c 0
 696 704 860 708 860 708 c 2
 879 708 888 705 888 695 c 0
 888 679 861 682 818 667 c 0
 800 661 785 652 758 638 c 0
 736 627 706 629 438 413 c 0
 429 406 426 399 426 399 c 2
 426 393 432 389 438 384 c 0
 764 69 794 63 868 49 c 0
 894 44 908 43 908 22 c 0
 908 4 906 3 840 2 c 2
 700 0 l 2
 669 0 679 -3 584 86 c 0
 346 309 343 309 324 309 c 0
 310 309 308 296 308 285 c 0
 308 283 310 266 310 216 c 0
 310 161 309 99 324 75 c 0
 342 47 382 46 392 46 c 0
 395 46 397 44 400 44 c 0
 410 44 420 36 420 28 c 0
 420 4 411 0 390 0 c 0
 325 0 316 6 276 6 c 0
 217 6 191 -1 150 -1 c 0
 117 -1 114 7 114 16 c 2
 114 22 l 2
 114 46 151 34 170 64 c 0
 191 84 190 164 190 277 c 2
 190 404 l 2
 190 431 188 467 188 506 c 2
 188 549 l 2
 188 574 187 597 184 618 c 0
 180 651 140 665 112 666 c 0
 92 668 92 680 92 688 c 0
EndSplineSet
EndChar
StartChar: L
Encoding: 76 76 21
Width: 1000
Flags: MW
LayerCount: 2
Back
Fore
SplineSet
196 693 m 0
 196 716 219 721 228 721 c 0
 237 721 248 718 260 718 c 0
 288 718 315 712 362 712 c 0
 425 712 463 718 484 718 c 0
 499 718 504 716 504 708 c 0
 504 665 427 728 422 601 c 0
 420 539 408 196 408 185 c 2
 408 145 l 2
 408 112 415 72 432 67 c 0
 454 60 461 59 476 59 c 0
 825 59 763 151 792 151 c 0
 798 151 804 145 804 131 c 0
 804 61 719 -21 676 -21 c 0
 538 -21 444 -7 378 -7 c 0
 319 -7 297 -19 244 -19 c 0
 222 -19 212 -11 212 -1 c 0
 212 15 223 23 228 23 c 0
 232 23 244 23 258 33 c 0
 280 50 292 76 292 227 c 2
 292 349 l 2
 292 403 296 460 296 521 c 0
 296 550 294 579 292 611 c 0
 290 653 251 671 212 672 c 0
 198 672 196 681 196 693 c 0
EndSplineSet
EndChar
StartChar: M
Encoding: 77 77 22
Width: 1000
Flags: MW
LayerCount: 2
Back
Fore
SplineSet
30 698 m 0
 30 708 33 720 49 720 c 0
 61 720 96 714 106 714 c 0
 135 714 213 717 233 717 c 0
 246 717 254 711 258 703 c 0
 359 497 509 197 524 197 c 0
 536 197 547 230 559 253 c 2
 673 465 l 2
 740 603 778 681 784 693 c 0
 792 706 787 720 825 720 c 0
 871 720 849 717 917 717 c 0
 925 717 935 717 935 697 c 0
 935 678 929 669 899 663 c 0
 866 659 851 642 851 557 c 0
 851 472 860 228 860 185 c 0
 860 51 887 34 952 34 c 0
 962 34 970 21 970 13 c 0
 970 -11 964 -11 944 -11 c 0
 880 -11 863 -5 824 -5 c 0
 763 -5 720 -12 678 -12 c 0
 659 -12 657 -4 657 2 c 0
 657 31 715 0 728 67 c 0
 730 77 732 101 732 131 c 0
 732 206 723 386 723 389 c 0
 723 417 719 432 714 432 c 0
 705 432 694 406 676 370 c 2
 566 166 l 2
 485 17 480 12 468 12 c 0
 448 12 443 47 414 105 c 0
 229 483 231 484 223 484 c 0
 218 484 215 474 215 445 c 0
 212 303 201 262 201 188 c 2
 201 144 l 2
 201 92 202 41 282 33 c 0
 288 33 296 24 296 16 c 0
 296 -8 291 -11 279 -11 c 0
 242 -11 180 -5 165 -5 c 0
 152 -5 123 -10 75 -10 c 0
 61 -10 52 -8 52 7 c 0
 52 34 120 0 128 83 c 0
 131 114 147 391 147 483 c 0
 147 612 132 654 43 675 c 0
 30 679 30 690 30 698 c 0
EndSplineSet
EndChar
StartChar: N
Encoding: 78 78 23
Width: 1000
Flags: MW
LayerCount: 2
Back
Fore
SplineSet
106 690 m 0
 106 701 116 716 132 716 c 0
 143 716 161 714 170 714 c 0
 198 714 202 718 222 718 c 0
 234 718 268 708 278 700 c 0
 285 695 316 661 350 628 c 0
 498 484 634 355 698 285 c 0
 727 253 737 247 744 247 c 0
 753 247 754 269 754 301 c 2
 754 342 l 2
 754 495 752 500 752 521 c 2
 752 528 l 2
 752 678 698 654 656 667 c 0
 642 673 636 684 636 693 c 0
 636 705 640 716 658 716 c 0
 671 716 750 714 762 714 c 0
 808 714 841 718 862 718 c 0
 886 718 894 713 894 692 c 0
 894 675 862 663 860 661 c 0
 851 656 826 632 826 548 c 2
 826 510 l 2
 826 369 814 116 814 17 c 2
 814 -3 l 2
 814 -16 813 -26 800 -26 c 0
 794 -26 787 -22 784 -19 c 0
 406 392 304 475 294 475 c 0
 287 475 284 427 284 386 c 0
 284 296 272 167 272 119 c 0
 272 0 374 37 374 4 c 0
 374 -12 368 -13 356 -13 c 0
 324 -13 336 -11 240 -11 c 0
 217 -11 185 -13 146 -13 c 0
 132 -13 122 -12 122 3 c 0
 122 29 179 0 196 79 c 0
 203 112 220 417 220 490 c 0
 220 554 191 636 118 667 c 0
 106 672 106 682 106 690 c 0
EndSplineSet
EndChar
StartChar: O
Encoding: 79 79 24
Width: 1000
Flags: MW
LayerCount: 2
Back
Fore
SplineSet
75 338 m 0
 75 559 222 732 505 732 c 0
 841 732 925 497 925 392 c 0
 925 103 732 -28 489 -28 c 0
 213 -28 75 153 75 338 c 0
207 389 m 0
 207 266 298 39 524 39 c 0
 635 39 802 124 802 302 c 0
 802 546 648 671 472 671 c 0
 338 671 207 586 207 389 c 0
EndSplineSet
EndChar
StartChar: P
Encoding: 80 80 25
Width: 1000
Flags: MW
LayerCount: 2
Back
Fore
SplineSet
202 696 m 0
 202 708 209 720 228 720 c 0
 240 720 237 721 272 721 c 0
 285 721 319 716 340 716 c 0
 390 716 491 721 532 721 c 0
 664 721 798 661 798 529 c 0
 798 348 610 311 550 311 c 0
 502 311 440 328 440 343 c 0
 440 358 445 365 452 365 c 0
 466 365 478 357 504 357 c 0
 558 357 670 384 670 489 c 0
 670 562 604 660 468 660 c 0
 429 660 416 648 416 558 c 0
 416 163 412 457 412 145 c 0
 412 76 431 45 454 30 c 0
 489 8 536 51 536 -1 c 0
 536 -15 522 -18 510 -18 c 0
 465 -18 365 -11 348 -11 c 0
 320 -11 292 -17 242 -17 c 0
 230 -17 208 -17 208 0 c 0
 208 35 223 35 246 44 c 0
 260 48 264 17 280 87 c 0
 290 115 296 373 296 432 c 0
 296 535 294 573 294 598 c 0
 294 621 281 676 222 676 c 0
 211 676 202 681 202 696 c 0
EndSplineSet
EndChar
StartChar: Q
Encoding: 81 81 26
Width: 1000
Flags: MW
LayerCount: 2
Back
Fore
SplineSet
10 349 m 0
 10 560 130 732 442 732 c 0
 767 732 846 488 846 380 c 0
 846 243 758 73 604 36 c 0
 536 19 524 17 524 13 c 0
 524 7 533 -1 546 -6 c 0
 633 -42 789 -110 878 -110 c 0
 950 -110 948 -82 978 -82 c 0
 983 -82 990 -94 990 -98 c 0
 990 -160 897 -212 808 -212 c 0
 655 -212 345 5 266 5 c 0
 196 5 172 -48 172 -90 c 2
 172 -106 l 2
 172 -119 166 -130 144 -130 c 0
 124 -130 108 -109 108 -88 c 0
 108 -24 153 31 188 51 c 0
 202 59 214 65 214 69 c 0
 214 72 202 80 186 88 c 0
 71 149 10 244 10 349 c 0
170 386 m 0
 170 308 172 235 222 168 c 0
 278 92 395 67 460 67 c 0
 517 67 569 79 604 97 c 0
 648 119 700 178 700 298 c 0
 700 508 586 671 410 671 c 0
 276 671 170 585 170 386 c 0
EndSplineSet
EndChar
StartChar: R
Encoding: 82 82 27
Width: 1000
Flags: MW
LayerCount: 2
Back
Fore
SplineSet
112 706 m 0
 112 719 122 722 146 722 c 2
 338 722 l 2
 388 722 413 726 454 726 c 0
 587 726 720 665 720 558 c 0
 720 386 574 371 574 355 c 0
 574 339 723 130 768 85 c 0
 773 80 813 38 872 38 c 0
 879 38 888 32 888 20 c 0
 888 -6 886 -18 808 -18 c 0
 805 -18 705 -10 666 11 c 0
 609 42 545 162 490 245 c 0
 445 313 439 323 426 323 c 2
 404 323 l 1
 352 323 l 2
 336 323 334 323 334 252 c 0
 334 111 336 125 336 111 c 0
 336 0 458 32 458 -1 c 0
 458 -11 454 -16 438 -16 c 0
 433 -16 285 -6 274 -6 c 0
 219 -6 161 -12 148 -12 c 0
 137 -12 124 -9 124 4 c 0
 124 40 208 0 208 108 c 0
 208 174 210 317 210 431 c 0
 210 539 208 576 208 604 c 0
 208 724 112 674 112 706 c 0
334 535 m 2
 334 413 334 394 342 389 c 0
 355 382 367 381 386 381 c 2
 396 381 l 1
 424 381 l 2
 546 381 582 445 582 511 c 0
 582 575 532 664 388 664 c 0
 337 664 334 645 334 561 c 2
 334 535 l 2
EndSplineSet
EndChar
StartChar: S
Encoding: 83 83 28
Width: 1000
Flags: MW
LayerCount: 2
Back
Fore
SplineSet
224 190 m 0
 224 206 234 213 244 213 c 0
 253 213 265 209 268 203 c 0
 295 144 348 42 502 42 c 0
 610 42 680 100 680 185 c 0
 680 320 493 265 352 343 c 0
 290 377 254 468 254 536 c 0
 254 655 362 732 514 732 c 0
 586 732 658 682 674 682 c 0
 681 682 692 694 700 694 c 0
 707 694 715 691 716 686 c 0
 725 639 740 562 740 548 c 0
 740 527 729 519 720 519 c 0
 708 519 702 524 698 533 c 0
 673 592 662 599 632 624 c 0
 594 656 545 670 498 670 c 0
 418 670 350 629 350 559 c 0
 350 399 601 489 734 357 c 0
 760 331 776 249 776 203 c 0
 776 59 655 -25 508 -25 c 0
 410 -25 352 -20 280 16 c 0
 256 29 224 180 224 190 c 0
EndSplineSet
EndChar
StartChar: T
Encoding: 84 84 29
Width: 1000
Flags: MW
LayerCount: 2
Back
Fore
SplineSet
128 571 m 0
 128 605 136 662 140 691 c 0
 143 717 140 732 174 732 c 0
 252 732 242 720 490 720 c 0
 656 720 777 724 836 728 c 0
 838 728 842 729 844 729 c 0
 863 729 864 713 864 709 c 0
 864 695 872 622 872 612 c 0
 872 570 868 567 848 567 c 0
 845 567 835 568 830 579 c 0
 817 624 814 642 730 642 c 2
 600 642 l 2
 568 642 564 638 564 578 c 2
 564 530 l 2
 564 299 560 257 560 167 c 0
 560 141 558 120 558 102 c 0
 558 75 560 58 572 46 c 0
 611 9 658 28 658 2 c 0
 658 -14 650 -15 630 -15 c 0
 600 -15 540 -3 502 -3 c 0
 472 -3 421 -14 384 -14 c 0
 360 -14 342 -7 342 11 c 0
 342 43 368 37 392 46 c 0
 410 50 427 58 430 84 c 0
 442 151 444 407 444 447 c 0
 444 549 442 619 442 619 c 2
 442 643 441 646 368 646 c 0
 220 646 217 636 206 622 c 0
 166 587 182 551 144 551 c 0
 135 551 128 555 128 571 c 0
EndSplineSet
EndChar
StartChar: U
Encoding: 85 85 30
Width: 1000
Flags: MW
LayerCount: 2
Back
Fore
SplineSet
80 702 m 0
 80 712 79 721 106 721 c 0
 139 721 172 715 238 715 c 0
 293 715 260 718 348 718 c 0
 359 718 374 717 374 704 c 0
 374 670 304 717 304 590 c 2
 304 562 l 2
 304 475 302 406 302 347 c 0
 302 210 302 40 534 40 c 0
 646 40 794 41 794 326 c 0
 794 490 792 490 792 531 c 0
 792 583 791 637 756 660 c 0
 732 686 694 670 694 694 c 0
 694 706 698 718 716 718 c 0
 729 718 790 715 802 715 c 0
 849 715 877 720 898 720 c 0
 921 720 920 711 920 706 c 0
 920 689 883 684 872 662 c 0
 863 644 862 632 862 594 c 0
 862 576 862 555 862 524 c 0
 862 130 820 45 684 -9 c 0
 644 -24 564 -32 526 -32 c 0
 391 -32 317 -12 264 33 c 0
 176 107 174 199 174 406 c 2
 174 423 l 2
 174 493 176 538 176 569 c 0
 176 639 171 663 102 673 c 0
 81 677 80 694 80 702 c 0
EndSplineSet
EndChar
StartChar: V
Encoding: 86 86 31
Width: 1000
Flags: MW
LayerCount: 2
Back
Fore
SplineSet
38 696 m 0
 38 709 62 710 78 710 c 0
 109 710 139 706 232 706 c 0
 257 706 294 708 324 708 c 0
 366 708 372 707 372 697 c 0
 372 682 330 683 330 650 c 0
 330 608 364 558 484 312 c 0
 520 238 559 159 572 159 c 0
 582 159 812 596 812 649 c 0
 812 696 740 676 740 700 c 0
 740 709 744 710 768 710 c 0
 784 710 804 709 850 709 c 0
 900 709 874 711 938 711 c 0
 952 711 962 709 962 697 c 0
 962 675 919 687 886 625 c 2
 616 117 l 2
 539 -29 547 -30 534 -30 c 0
 527 -30 508 -24 478 39 c 0
 439 118 408 173 354 271 c 0
 183 579 176 604 150 643 c 0
 114 697 38 661 38 696 c 0
EndSplineSet
EndChar
StartChar: W
Encoding: 87 87 32
Width: 1000
Flags: MW
LayerCount: 2
Back
Fore
SplineSet
2 702 m 0
 2 715 17 716 28 716 c 0
 50 716 73 712 138 712 c 0
 186 712 209 716 222 716 c 0
 234 716 236 713 236 704 c 0
 236 688 206 690 206 656 c 0
 206 624 237 561 334 309 c 0
 364 231 387 155 396 155 c 0
 402 155 438 234 462 303 c 0
 471 329 476 331 476 350 c 0
 476 363 389 594 368 628 c 0
 348 661 336 670 322 672 c 0
 282 678 282 683 282 697 c 0
 282 717 301 718 312 718 c 0
 334 718 356 712 422 712 c 0
 431 712 463 718 488 718 c 0
 505 718 518 715 518 709 c 0
 518 693 492 696 492 661 c 0
 492 638 503 612 520 566 c 0
 528 545 534 513 542 513 c 0
 552 513 604 636 604 657 c 0
 604 702 568 686 568 708 c 0
 568 718 574 720 584 720 c 0
 594 720 616 716 630 716 c 2
 644 716 l 2
 654 716 663 718 682 721 c 2
 688 721 l 2
 693 721 698 719 698 711 c 0
 698 692 677 698 666 681 c 0
 660 672 651 655 642 634 c 0
 572 466 566 457 566 436 c 0
 566 431 654 162 666 162 c 0
 677 162 856 621 856 655 c 0
 856 703 810 683 810 708 c 0
 810 717 810 718 832 718 c 0
 846 718 864 716 906 716 c 0
 930 716 939 720 974 720 c 0
 987 720 998 717 998 705 c 0
 998 689 980 690 960 669 c 0
 944 652 938 635 922 596 c 0
 667 -34 671 -35 658 -35 c 0
 648 -35 629 21 616 54 c 0
 577 151 532 281 522 281 c 0
 508 281 403 13 400 5 c 0
 390 -24 386 -38 376 -38 c 0
 356 -38 333 67 248 269 c 0
 180 431 149 513 134 562 c 0
 84 723 2 655 2 702 c 0
EndSplineSet
EndChar
StartChar: X
Encoding: 88 88 33
Width: 1000
Flags: MW
LayerCount: 2
Back
Fore
SplineSet
46 694 m 0
 46 711 50 714 100 714 c 0
 155 714 140 708 218 708 c 0
 232 708 345 711 356 711 c 0
 374 711 384 711 384 702 c 0
 384 674 340 696 340 663 c 0
 340 642 394 593 414 567 c 0
 484 473 508 462 520 462 c 0
 528 462 538 468 550 484 c 0
 596 544 688 632 688 655 c 0
 688 702 636 677 636 704 c 0
 636 712 642 714 656 714 c 0
 715 714 720 708 768 708 c 0
 897 708 864 714 896 714 c 0
 907 714 918 712 918 704 c 0
 918 683 879 692 824 663 c 0
 802 651 783 632 756 605 c 0
 677 525 570 394 570 390 c 0
 570 378 575 381 714 221 c 0
 755 174 841 83 876 61 c 0
 887 49 954 49 954 20 c 0
 954 8 951 -1 912 -1 c 0
 870 -1 788 9 774 9 c 0
 689 9 656 0 640 0 c 0
 630 0 624 2 624 13 c 0
 624 39 674 22 674 57 c 0
 674 81 606 125 496 271 c 0
 489 281 479 288 476 288 c 0
 472 288 462 273 448 258 c 0
 386 190 294 112 294 68 c 0
 294 59 297 42 348 42 c 0
 355 42 360 36 360 16 c 0
 360 1 346 0 318 0 c 0
 294 0 210 4 198 4 c 0
 174 4 118 -1 90 -1 c 0
 66 -1 50 0 50 18 c 0
 50 38 91 20 140 50 c 0
 203 89 278 176 344 247 c 0
 396 303 426 340 426 347 c 0
 426 356 393 393 268 537 c 0
 228 583 154 654 96 664 c 0
 80 669 46 668 46 694 c 0
EndSplineSet
EndChar
StartChar: Y
Encoding: 89 89 34
Width: 1000
Flags: MW
LayerCount: 2
Back
Fore
SplineSet
104 680 m 0
 104 702 116 705 166 705 c 0
 179 705 207 702 224 702 c 0
 247 702 324 704 352 704 c 0
 387 704 402 698 402 691 c 0
 402 670 360 675 360 656 c 0
 360 626 401 580 422 552 c 0
 475 480 514 422 522 422 c 0
 538 422 565 452 602 496 c 0
 642 546 698 592 698 618 c 0
 698 644 681 652 664 656 c 0
 645 662 624 660 624 687 c 0
 624 702 636 705 660 705 c 0
 675 705 695 704 716 704 c 0
 776 704 779 702 830 702 c 0
 867 702 896 701 896 687 c 0
 896 677 867 678 840 661 c 0
 751 607 652 461 572 382 c 0
 544 355 542 330 542 259 c 0
 542 233 544 179 544 146 c 2
 544 123 l 2
 544 53 583 47 596 47 c 0
 599 47 613 46 616 46 c 0
 626 46 632 32 632 24 c 0
 632 4 625 0 604 0 c 0
 588 0 522 2 486 2 c 0
 410 2 406 -4 358 -4 c 0
 332 -4 326 1 326 12 c 0
 326 44 347 33 368 42 c 0
 388 48 410 64 410 101 c 0
 410 125 412 117 412 294 c 0
 412 352 399 354 256 560 c 0
 190 655 159 660 130 660 c 0
 121 660 104 660 104 680 c 0
EndSplineSet
EndChar
StartChar: Z
Encoding: 90 90 35
Width: 1000
Flags: MW
LayerCount: 2
Back
Fore
SplineSet
176 13 m 0
 176 26 212 55 265 133 c 0
 354 263 582 597 582 622 c 0
 582 632 561 633 532 633 c 0
 427 633 394 628 351 627 c 0
 242 625 234 542 214 542 c 0
 208 542 198 545 198 560 c 0
 198 599 208 615 208 633 c 0
 208 651 211 658 215 686 c 0
 217 705 225 710 250 710 c 0
 276 710 357 705 518 705 c 0
 665 705 632 706 742 706 c 0
 778 706 796 704 796 692 c 0
 796 668 396 106 396 86 c 0
 396 67 428 67 502 67 c 0
 646 67 706 70 764 96 c 0
 796 111 801 128 815 128 c 0
 816 128 824 127 824 115 c 0
 824 98 805 64 786 36 c 0
 772 15 770 0 734 0 c 0
 601 0 612 -1 507 -1 c 0
 120 -1 303 -2 201 -2 c 0
 187 -2 176 -1 176 13 c 0
EndSplineSet
EndChar
StartChar: bracketleft
Encoding: 91 91 85
Width: 1000
Flags: MW
LayerCount: 2
Back
Fore
SplineSet
782 -91 m 2
 782 72 791 373 791 576 c 0
 791 679 790 730 790 747 c 0
 790 771 804 773 845 773 c 2
 894 773 l 2
 954 773 960 774 968 774 c 0
 978 774 986 760 986 743 c 0
 986 726 982 712 974 712 c 0
 955 712 891 711 882 711 c 2
 866 711 l 2
 861 711 858 711 858 703 c 0
 858 687 862 643 862 552 c 0
 862 399 854 168 854 22 c 0
 854 -19 854 -73 856 -122 c 0
 856 -134 858 -148 868 -148 c 0
 886 -148 949 -146 958 -146 c 0
 976 -146 982 -154 982 -180 c 0
 982 -213 967 -216 923 -216 c 2
 820 -216 l 2
 786 -216 782 -210 782 -154 c 2
 782 -91 l 2
EndSplineSet
EndChar
StartChar: backslash
Encoding: 92 92 86
Width: 1000
Flags: MW
LayerCount: 2
Back
Fore
SplineSet
43 723 m 0
 43 733 63 735 73 735 c 0
 92 735 102 732 115 717 c 0
 120 711 930 -113 930 -113 c 2
 949 -133 950 -158 950 -167 c 0
 950 -183 917 -183 901 -183 c 0
 887 -183 884 -174 863 -152 c 2
 57 679 l 2
 48 689 43 714 43 723 c 0
EndSplineSet
EndChar
StartChar: bracketright
Encoding: 93 93 87
Width: 1000
Flags: MW
LayerCount: 2
Back
Fore
SplineSet
29 -185 m 0
 29 -168 34 -153 42 -153 c 2
 134 -153 l 1
 150 -153 l 2
 155 -153 157 -152 157 -144 c 0
 157 -128 156 -84 156 7 c 0
 156 160 162 391 162 537 c 0
 162 578 162 631 160 680 c 0
 160 692 158 706 148 706 c 2
 57 706 l 2
 39 706 33 712 33 738 c 0
 33 755 38 773 53 773 c 0
 110 775 66 776 196 776 c 0
 230 776 234 770 234 714 c 2
 234 651 l 2
 234 488 226 187 226 -16 c 0
 226 -119 228 -171 228 -188 c 0
 228 -212 213 -215 172 -215 c 2
 123 -215 l 1
 48 -215 l 2
 38 -215 29 -202 29 -185 c 0
EndSplineSet
EndChar
StartChar: asciicircum
Encoding: 94 94 88
Width: 1000
Flags: MW
LayerCount: 2
Back
Fore
SplineSet
302 317 m 0
 302 322 315 336 321 342 c 0
 451 512 461 534 501 534 c 0
 543 534 552 511 681 342 c 0
 687 336 698 320 698 315 c 0
 698 308 685 307 671 307 c 2
 649 307 l 2
 623 307 615 325 603 340 c 0
 535 423 515 454 501 454 c 0
 486 454 467 423 399 340 c 0
 387 325 379 308 353 308 c 2
 332 308 l 2
 317 308 302 310 302 317 c 0
EndSplineSet
EndChar
StartChar: underscore
Encoding: 95 95 89
Width: 1000
Flags: MW
LayerCount: 2
Back
Fore
SplineSet
0 -38 m 0
 0 -18 2 -6 29 -6 c 2
 976 -6 l 2
 1000 -6 1000 -17 1000 -38 c 0
 1000 -64 1000 -74 968 -74 c 2
 27 -74 l 2
 0 -74 0 -64 0 -38 c 0
EndSplineSet
EndChar
StartChar: grave
Encoding: 96 96 90
Width: 1000
Flags: MW
LayerCount: 2
Back
Fore
SplineSet
388 669 m 0
 388 701 462 708 468 708 c 0
 474 708 487 703 498 679 c 0
 576 491 612 472 612 451 c 0
 612 442 603 434 594 434 c 0
 582 434 558 457 535 481 c 0
 473 546 388 637 388 669 c 0
EndSplineSet
EndChar
StartChar: a
Encoding: 97 97 36
Width: 1000
Flags: MW
LayerCount: 2
Back
Fore
SplineSet
317 74 m 0
 317 183 438 193 583 215 c 0
 596 217 603 218 603 231 c 0
 603 251 606 267 606 283 c 0
 606 370 537 392 509 392 c 0
 446 392 437 359 437 335 c 0
 437 321 443 310 443 301 c 0
 443 285 432 282 416 282 c 0
 398 282 323 287 323 324 c 0
 323 379 424 442 530 442 c 0
 715 442 715 351 715 312 c 0
 715 177 707 197 708 119 c 0
 709 -15 784 43 784 6 c 0
 784 -10 759 -15 709 -15 c 0
 640 -15 620 56 614 56 c 0
 609 56 543 -26 457 -26 c 0
 406 -26 374 -20 347 4 c 0
 326 22 317 47 317 74 c 0
434 106 m 0
 434 63 461 35 511 35 c 0
 603 35 603 101 603 132 c 2
 603 186 l 2
 603 192 600 195 596 195 c 0
 593 195 589 193 586 193 c 0
 522 183 434 185 434 106 c 0
EndSplineSet
EndChar
StartChar: b
Encoding: 98 98 37
Width: 1000
Flags: MW
LayerCount: 2
Back
Fore
SplineSet
218 703 m 0
 218 725 274 734 298 742 c 0
 324 751 367 770 380 770 c 0
 388 770 398 763 398 751 c 0
 398 712 396 798 396 400 c 0
 396 386 399 382 404 382 c 0
 421 382 421 456 576 456 c 0
 714 456 782 344 782 238 c 0
 782 182 748 74 676 25 c 0
 633 -4 579 -21 514 -21 c 0
 405 -21 350 55 342 55 c 0
 329 55 313 -27 284 -27 c 0
 272 -27 270 -23 270 -14 c 0
 270 11 274 65 274 71 c 0
 274 149 288 226 288 343 c 2
 288 598 l 2
 288 642 281 692 244 692 c 2
 234 692 l 2
 226 692 218 694 218 703 c 0
396 134 m 2
 396 112 440 34 542 34 c 0
 639 34 684 106 684 184 c 0
 684 275 622 374 508 374 c 0
 479 374 449 365 428 348 c 0
 399 326 396 315 396 304 c 2
 396 134 l 2
EndSplineSet
EndChar
StartChar: c
Encoding: 99 99 38
Width: 1000
Flags: MW
LayerCount: 2
Back
Fore
SplineSet
286 189 m 0
 286 318 387 439 544 439 c 0
 589 439 672 423 674 402 c 0
 675 389 676 368 676 349 c 0
 676 323 672 300 664 300 c 0
 650 300 649 317 632 330 c 0
 609 349 551 379 498 379 c 0
 478 379 400 354 400 224 c 0
 400 129 473 44 570 44 c 0
 650 44 689 93 702 93 c 0
 708 93 714 86 714 80 c 0
 714 69 656 -35 514 -35 c 0
 378 -35 286 48 286 189 c 0
EndSplineSet
EndChar
StartChar: d
Encoding: 100 100 39
Width: 1000
Flags: MW
LayerCount: 2
Back
Fore
SplineSet
211 191 m 0
 211 316 301 445 480 445 c 0
 530 445 590 416 605 416 c 0
 608 416 611 422 611 450 c 0
 611 569 614 535 614 568 c 0
 614 630 614 671 558 671 c 2
 547 671 l 2
 526 671 526 672 526 683 c 2
 526 685 l 2
 526 708 565 703 654 757 c 0
 671 762 692 772 709 772 c 0
 719 772 726 767 726 752 c 0
 726 731 713 618 713 534 c 0
 713 354 710 240 710 168 c 0
 710 77 716 56 745 47 c 0
 761 40 789 41 789 16 c 0
 789 9 784 -2 693 -11 c 0
 657 -14 629 -28 614 -28 c 0
 605 -28 600 -24 600 -13 c 0
 600 0 596 14 596 39 c 0
 596 49 595 63 586 63 c 0
 574 63 530 -28 426 -28 c 0
 283 -28 211 79 211 191 c 0
319 243 m 0
 319 156 381 51 485 51 c 0
 543 51 604 109 604 152 c 0
 606 313 605 271 605 287 c 0
 605 339 591 351 577 359 c 0
 545 377 494 401 458 401 c 0
 369 401 319 331 319 243 c 0
EndSplineSet
EndChar
StartChar: e
Encoding: 101 101 40
Width: 1000
Flags: MW
LayerCount: 2
Back
Fore
SplineSet
263 188 m 0
 263 324 362 438 511 438 c 0
 694 438 736 283 736 267 c 0
 736 252 721 248 689 248 c 2
 427 248 l 1
 393 248 l 2
 380 248 380 247 380 238 c 0
 380 119 479 57 575 57 c 0
 657 57 705 97 725 97 c 0
 731 97 737 91 737 86 c 0
 737 72 664 -35 521 -35 c 0
 390 -35 263 32 263 188 c 0
389 298 m 0
 389 290 391 285 402 285 c 0
 447 285 558 294 575 294 c 0
 594 294 596 296 596 304 c 0
 596 327 568 400 490 400 c 0
 419 400 389 329 389 298 c 0
EndSplineSet
EndChar
StartChar: f
Encoding: 102 102 41
Width: 1000
Flags: MW
LayerCount: 2
Back
Fore
SplineSet
338 380 m 0
 338 418 349 426 381 426 c 2
 402 426 l 2
 419 426 420 435 420 449 c 0
 420 658 586 763 667 763 c 0
 702 763 726 749 726 726 c 0
 726 718 723 705 720 689 c 0
 714 663 713 646 697 646 c 0
 685 646 689 669 626 669 c 0
 542 669 521 552 521 464 c 2
 521 442 l 2
 521 432 523 424 533 424 c 0
 575 424 608 430 629 436 c 0
 638 439 644 450 650 450 c 0
 653 450 655 444 655 438 c 0
 655 413 646 394 641 381 c 0
 637 372 628 368 616 368 c 0
 569 368 600 366 538 366 c 0
 529 366 522 366 522 357 c 2
 522 301 l 2
 522 284 527 153 529 112 c 0
 530 76 531 25 591 25 c 0
 607 25 607 13 607 2 c 0
 607 -4 606 -13 594 -13 c 0
 590 -13 504 -6 477 -6 c 0
 434 -6 436 -13 390 -13 c 0
 379 -13 372 -10 372 1 c 0
 372 16 423 8 423 69 c 0
 423 97 417 162 417 349 c 0
 417 364 413 365 400 365 c 0
 389 365 377 360 360 360 c 0
 339 360 338 371 338 380 c 0
EndSplineSet
EndChar
StartChar: g
Encoding: 103 103 42
Width: 1000
Flags: MW
LayerCount: 2
Back
Fore
SplineSet
235 -103 m 0
 235 -41 343 -26 343 -16 c 0
 343 -10 293 0 293 45 c 0
 293 114 371 136 371 146 c 0
 371 162 269 176 269 283 c 0
 269 336 306 439 484 439 c 0
 593 439 624 388 641 388 c 0
 660 388 680 400 704 409 c 0
 736 422 728 465 749 465 c 0
 753 465 765 465 765 456 c 0
 765 419 747 375 734 360 c 0
 719 342 697 333 677 327 c 1
 677 327 693 296 693 276 c 0
 693 189 608 120 501 120 c 0
 449 120 428 134 411 134 c 0
 409 134 359 133 359 95 c 0
 359 56 421 53 521 53 c 2
 576 53 l 2
 633 53 751 50 751 -44 c 0
 751 -63 750 -81 742 -97 c 0
 709 -169 600 -215 470 -215 c 0
 371 -215 235 -192 235 -103 c 0
322 -95 m 0
 322 -150 394 -173 471 -173 c 0
 561 -173 659 -145 659 -99 c 0
 659 -57 596 -57 530 -57 c 2
 519 -57 l 2
 457 -57 389 -36 376 -36 c 0
 366 -36 322 -58 322 -95 c 0
383 290 m 0
 383 214 425 156 483 156 c 0
 546 156 576 211 576 270 c 0
 576 336 540 405 472 405 c 0
 426 405 383 367 383 290 c 0
EndSplineSet
EndChar
StartChar: h
Encoding: 104 104 43
Width: 1000
Flags: MW
LayerCount: 2
Back
Fore
SplineSet
192 704 m 0
 192 723 245 725 278 737 c 0
 311 749 351 765 366 765 c 0
 381 765 382 748 382 741 c 0
 382 726 377 712 376 676 c 0
 371 397 364 406 364 376 c 0
 364 363 367 356 374 356 c 0
 385 356 438 441 530 441 c 0
 645 441 720 385 720 249 c 2
 720 108 l 2
 720 93 726 54 754 51 c 0
 784 47 808 38 808 20 c 0
 808 0 791 -4 772 -4 c 0
 758 -4 698 3 674 3 c 0
 655 3 593 -2 584 -2 c 0
 569 -2 558 0 558 8 c 0
 558 40 610 0 610 69 c 0
 610 85 612 69 612 228 c 0
 612 307 554 372 488 372 c 0
 450 372 415 352 392 336 c 0
 368 319 362 300 362 167 c 2
 362 146 l 2
 362 102 366 60 404 45 c 0
 426 31 458 45 458 18 c 0
 458 9 451 0 444 0 c 0
 443 0 326 8 320 8 c 0
 304 8 255 0 238 0 c 0
 196 0 206 6 206 15 c 0
 206 23 207 30 218 35 c 0
 258 47 262 71 262 111 c 2
 268 450 l 1
 268 499 l 2
 268 673 268 693 226 693 c 0
 211 693 213 694 210 694 c 0
 199 694 192 698 192 704 c 0
EndSplineSet
EndChar
StartChar: i
Encoding: 105 105 44
Width: 1000
Flags: MW
LayerCount: 2
Back
Fore
SplineSet
366 344 m 0
 366 358 397 359 468 380 c 0
 514 394 512 396 532 396 c 0
 540 396 550 392 550 380 c 0
 550 370 542 354 542 339 c 2
 542 104 l 2
 542 48 575 43 602 41 c 0
 620 39 634 39 634 18 c 0
 634 9 633 -7 614 -7 c 0
 609 -7 602 -6 596 -6 c 0
 545 -6 556 -2 510 -2 c 0
 459 -2 444 -6 424 -6 c 0
 394 -6 376 -3 376 6 c 0
 376 12 383 20 392 23 c 0
 432 35 434 30 434 186 c 2
 434 265 l 2
 434 351 398 328 376 335 c 0
 371 337 366 340 366 344 c 0
418 562 m 0
 418 582 459 645 492 645 c 0
 526 645 562 590 562 560 c 0
 562 524 506 477 492 477 c 0
 448 477 418 538 418 562 c 0
EndSplineSet
EndChar
StartChar: j
Encoding: 106 106 45
Width: 1000
Flags: MW
LayerCount: 2
Back
Fore
SplineSet
348 -134 m 0
 348 -113 353 -98 370 -98 c 0
 391 -98 412 -139 428 -139 c 0
 445 -139 451 -106 451 15 c 2
 451 305 l 2
 451 326 450 361 392 361 c 0
 383 361 376 362 376 376 c 0
 376 396 413 388 486 431 c 0
 512 441 534 452 544 452 c 0
 558 452 559 442 559 428 c 2
 559 417 l 2
 559 400 556 380 556 368 c 2
 556 31 l 2
 556 -67 523 -213 397 -213 c 0
 367 -213 350 -204 350 -179 c 0
 350 -165 348 -148 348 -134 c 0
441 591 m 0
 441 617 479 668 512 668 c 0
 547 668 584 621 584 591 c 0
 584 555 532 511 518 511 c 0
 474 511 441 567 441 591 c 0
EndSplineSet
EndChar
StartChar: k
Encoding: 107 107 46
Width: 1000
Flags: MW
LayerCount: 2
Back
Fore
SplineSet
218 685 m 0
 218 697 232 706 278 724 c 0
 341 740 320 733 366 756 c 0
 376 761 393 769 406 769 c 0
 419 769 424 759 424 750 c 0
 424 740 416 685 416 495 c 0
 416 426 412 357 412 288 c 2
 412 267 l 2
 412 246 413 225 416 225 c 0
 430 225 435 236 448 247 c 0
 581 350 588 364 588 370 c 0
 588 393 542 391 542 408 c 0
 542 414 545 417 554 417 c 0
 559 417 564 417 572 417 c 0
 653 419 697 421 720 421 c 0
 742 421 746 418 746 412 c 0
 746 392 716 408 656 369 c 0
 646 363 645 362 608 333 c 0
 508 256 528 256 528 244 c 0
 528 237 532 228 538 220 c 0
 610 131 647 83 676 52 c 0
 726 0 782 28 782 4 c 0
 782 -13 768 -13 740 -13 c 0
 727 -13 630 -12 620 -12 c 0
 590 -12 482 147 452 187 c 0
 449 191 446 193 442 193 c 0
 430 193 410 172 410 146 c 0
 410 141 412 136 412 129 c 0
 416 34 413 57 430 33 c 0
 445 11 504 19 504 0 c 0
 504 -14 473 -16 468 -16 c 0
 456 -16 393 -7 356 -7 c 0
 322 -7 322 -13 272 -13 c 0
 257 -13 244 -12 244 5 c 0
 244 25 261 28 268 31 c 0
 300 43 302 61 302 121 c 0
 302 140 304 156 304 164 c 2
 306 596 l 2
 306 661 277 670 258 670 c 0
 251 670 246 668 238 668 c 0
 227 668 218 671 218 685 c 0
EndSplineSet
EndChar
StartChar: l
Encoding: 108 108 47
Width: 1000
Flags: MW
LayerCount: 2
Back
Fore
SplineSet
362 700 m 0
 362 719 377 713 446 735 c 0
 478 745 515 763 540 763 c 0
 552 763 554 754 554 744 c 0
 554 729 548 683 548 592 c 2
 548 536 l 2
 548 451 544 453 544 403 c 2
 544 105 l 2
 544 73 550 32 626 32 c 0
 633 32 638 20 638 9 c 0
 638 -8 624 -12 602 -12 c 0
 578 -12 522 -1 486 -1 c 0
 433 -1 418 -14 392 -14 c 0
 379 -14 372 -3 372 2 c 0
 372 29 391 24 406 35 c 0
 430 46 434 65 434 100 c 0
 434 108 432 116 432 126 c 2
 432 200 l 2
 432 285 438 497 438 624 c 0
 438 655 426 683 414 688 c 0
 407 691 392 692 372 692 c 0
 366 692 362 693 362 700 c 0
EndSplineSet
EndChar
StartChar: m
Encoding: 109 109 48
Width: 1000
Flags: MW
LayerCount: 2
Back
Fore
SplineSet
56 398 m 0
 56 420 113 414 166 434 c 0
 192 443 199 450 220 450 c 0
 231 450 236 434 236 413 c 0
 236 398 232 383 232 373 c 0
 232 365 231 357 238 357 c 0
 246 357 275 439 390 439 c 0
 512 439 517 352 528 352 c 0
 536 352 597 444 690 444 c 0
 808 444 861 370 870 292 c 0
 876 242 878 198 878 163 c 2
 878 131 l 2
 878 77 880 47 906 39 c 0
 914 36 944 36 944 10 c 0
 944 -13 917 -12 904 -12 c 0
 888 -12 848 -6 824 -6 c 0
 790 -6 763 -12 738 -12 c 0
 725 -12 708 -11 708 -3 c 0
 708 17 746 14 754 33 c 0
 757 41 758 59 758 79 c 2
 758 95 l 2
 758 315 752 302 720 341 c 0
 703 361 674 372 644 372 c 0
 593 372 540 329 540 320 c 0
 540 308 548 297 548 199 c 2
 548 117 l 2
 548 64 557 35 618 26 c 0
 633 23 636 6 636 2 c 0
 636 -14 621 -14 614 -14 c 0
 594 -14 562 -6 528 -6 c 0
 507 -6 431 -14 420 -14 c 0
 412 -14 394 -9 394 6 c 0
 394 20 398 24 418 36 c 0
 425 38 440 39 440 94 c 0
 440 107 442 95 442 197 c 0
 442 256 438 250 438 256 c 0
 438 321 401 366 336 366 c 0
 280 366 230 332 230 294 c 2
 230 280 l 1
 230 95 l 2
 230 -13 314 27 314 4 c 0
 314 -7 313 -11 288 -11 c 0
 270 -11 240 -6 190 -6 c 0
 143 -6 116 -11 98 -11 c 0
 71 -11 70 -2 70 5 c 0
 70 27 102 6 116 51 c 0
 122 73 124 136 124 210 c 0
 124 251 124 294 124 337 c 0
 124 412 56 365 56 398 c 0
EndSplineSet
EndChar
StartChar: n
Encoding: 110 110 49
Width: 1000
Flags: MW
LayerCount: 2
Back
Fore
SplineSet
196 370 m 0
 196 389 229 388 256 397 c 0
 310 413 352 442 364 442 c 2
 366 442 l 2
 375 442 378 435 378 426 c 0
 378 417 376 407 376 386 c 0
 376 363 378 356 382 356 c 0
 390 356 394 372 434 401 c 0
 461 421 494 430 530 430 c 0
 688 430 722 318 722 267 c 0
 722 251 724 267 724 128 c 2
 724 107 l 2
 724 62 727 45 784 36 c 0
 802 32 804 26 804 14 c 0
 804 2 792 -2 780 -2 c 0
 732 -2 710 6 684 6 c 0
 654 6 608 0 594 0 c 0
 579 0 570 8 570 20 c 0
 570 41 592 40 594 42 c 0
 614 47 616 78 616 102 c 2
 616 224 l 2
 616 324 551 364 488 364 c 0
 422 364 380 320 376 309 c 0
 371 296 366 197 366 167 c 2
 366 133 l 2
 366 81 372 46 424 42 c 0
 430 42 464 38 464 20 c 0
 464 4 452 0 442 0 c 0
 399 0 411 6 358 6 c 0
 309 6 240 0 230 0 c 0
 216 0 212 3 212 9 c 0
 212 38 261 0 264 99 c 0
 266 151 268 142 268 169 c 2
 268 304 l 2
 268 348 247 354 224 354 c 2
 214 354 l 2
 200 354 196 360 196 370 c 0
EndSplineSet
EndChar
StartChar: o
Encoding: 111 111 50
Width: 1000
Flags: MW
LayerCount: 2
Back
Fore
SplineSet
226 202 m 0
 226 319 319 438 502 438 c 0
 638 438 774 360 774 209 c 0
 774 54 634 -26 494 -26 c 0
 316 -26 226 87 226 202 c 0
346 236 m 0
 346 96 441 20 526 20 c 0
 597 20 660 72 660 180 c 0
 660 282 601 396 478 396 c 0
 420 396 346 355 346 236 c 0
EndSplineSet
EndChar
StartChar: p
Encoding: 112 112 51
Width: 1000
Flags: MW
LayerCount: 2
Back
Fore
SplineSet
224 374 m 0
 224 392 259 385 344 435 c 0
 384 454 387 458 394 458 c 0
 403 458 410 454 410 440 c 0
 410 407 406 400 406 384 c 0
 406 377 409 373 410 373 c 0
 418 373 466 447 574 447 c 0
 711 447 776 345 776 236 c 0
 776 117 692 -17 540 -17 c 0
 425 -17 414 36 398 36 c 0
 396 36 396 33 396 28 c 2
 396 -90 l 1
 396 -103 l 2
 396 -126 407 -142 412 -154 c 0
 429 -196 500 -161 500 -195 c 0
 500 -198 495 -208 460 -208 c 0
 430 -208 432 -204 342 -204 c 0
 306 -204 285 -207 270 -207 c 0
 235 -207 232 -204 232 -197 c 0
 232 -166 292 -209 292 -92 c 2
 292 -72 l 2
 292 122 296 159 296 200 c 2
 296 221 l 2
 296 319 295 357 250 357 c 0
 225 357 224 364 224 374 c 0
396 190 m 0
 396 171 398 162 398 143 c 0
 398 51 489 29 544 29 c 0
 635 29 678 104 678 184 c 0
 678 275 622 371 520 371 c 0
 479 371 451 357 430 341 c 0
 405 322 396 310 396 190 c 0
EndSplineSet
EndChar
StartChar: q
Encoding: 113 113 52
Width: 1000
Flags: MW
LayerCount: 2
Back
Fore
SplineSet
211 171 m 0
 211 361 370 439 499 439 c 0
 594 439 654 374 655 374 c 0
 668 374 685 452 712 452 c 0
 719 452 722 449 722 436 c 0
 722 405 713 391 713 234 c 0
 713 47 718 190 718 -85 c 0
 718 -202 789 -167 789 -195 c 0
 789 -203 783 -207 768 -207 c 0
 760 -207 735 -206 686 -206 c 0
 583 -206 584 -213 571 -213 c 0
 546 -213 543 -202 543 -190 c 0
 543 -164 579 -172 594 -157 c 0
 603 -151 606 -142 606 -71 c 0
 606 -29 609 -20 609 0 c 0
 609 41 604 40 600 40 c 0
 581 40 549 -38 424 -38 c 0
 366 -38 325 -23 291 4 c 0
 212 67 211 136 211 171 c 0
316 219 m 0
 316 89 421 42 477 42 c 0
 601 42 606 110 606 146 c 2
 606 300 l 2
 606 354 527 395 471 395 c 0
 422 395 316 362 316 219 c 0
EndSplineSet
EndChar
StartChar: r
Encoding: 114 114 53
Width: 1000
Flags: MW
LayerCount: 2
Back
Fore
SplineSet
312 398 m 0
 312 423 374 420 476 460 c 0
 482 462 493 464 494 464 c 0
 505 464 510 450 510 435 c 0
 510 423 508 411 508 396 c 0
 508 354 510 346 516 346 c 0
 524 346 557 455 621 455 c 0
 642 455 647 447 667 429 c 0
 685 413 688 396 688 389 c 0
 688 333 657 312 654 312 c 0
 631 312 626 334 578 334 c 0
 539 334 504 297 504 278 c 2
 504 183 l 2
 504 80 507 91 507 76 c 0
 507 49 531 44 554 39 c 0
 579 33 604 36 604 13 c 0
 604 2 603 -11 590 -11 c 0
 553 -11 518 -4 491 -4 c 0
 428 -4 390 -11 370 -11 c 0
 344 -11 344 -4 344 7 c 0
 344 19 346 28 357 33 c 0
 393 42 394 64 394 145 c 0
 394 342 391 322 391 342 c 0
 391 361 386 380 342 380 c 0
 339 380 335 382 331 382 c 0
 322 382 312 384 312 398 c 0
EndSplineSet
EndChar
StartChar: s
Encoding: 115 115 54
Width: 1000
Flags: MW
LayerCount: 2
Back
Fore
SplineSet
322 37 m 2
 322 131 l 2
 322 147 335 159 346 159 c 0
 378 159 370 140 384 118 c 0
 394 94 426 30 488 30 c 0
 519 30 576 44 576 101 c 0
 576 222 334 124 334 323 c 0
 334 400 419 447 508 447 c 0
 627 447 638 414 638 406 c 0
 638 403 644 351 644 339 c 0
 644 315 639 307 624 307 c 0
 606 307 591 395 498 395 c 0
 459 395 430 374 430 344 c 0
 430 285 494 286 546 268 c 0
 649 232 678 231 678 109 c 0
 678 71 648 31 614 5 c 0
 597 -7 569 -26 498 -26 c 0
 436 -26 384 -2 366 3 c 0
 338 12 322 10 322 37 c 2
EndSplineSet
EndChar
StartChar: t
Encoding: 116 116 55
Width: 1000
Flags: MW
LayerCount: 2
Back
Fore
SplineSet
332 372 m 0
 332 391 355 393 399 435 c 0
 450 484 470 531 495 531 c 0
 505 531 509 525 509 508 c 0
 509 490 505 470 505 451 c 0
 505 432 505 431 546 431 c 2
 581 431 l 2
 646 431 647 445 658 445 c 0
 665 445 668 438 668 430 c 0
 668 416 644 353 636 353 c 0
 564 354 533 363 532 363 c 0
 506 363 502 358 502 332 c 0
 502 306 496 209 496 160 c 0
 496 85 507 53 582 53 c 0
 618 53 645 70 656 70 c 0
 663 70 666 68 666 54 c 0
 666 34 608 -23 540 -23 c 0
 394 -23 385 55 385 94 c 2
 385 109 l 2
 385 197 391 334 391 342 c 0
 391 355 387 358 369 358 c 0
 362 358 355 356 350 356 c 0
 338 356 332 358 332 372 c 0
EndSplineSet
EndChar
StartChar: u
Encoding: 117 117 56
Width: 1000
Flags: MW
LayerCount: 2
Back
Fore
SplineSet
199 391 m 0
 199 411 211 425 285 425 c 0
 302 425 350 432 358 432 c 0
 387 432 388 430 388 383 c 0
 388 330 380 312 380 207 c 0
 380 76 447 47 491 47 c 0
 574 47 613 74 613 161 c 2
 610 291 l 2
 610 349 607 369 565 373 c 0
 554 375 543 381 543 393 c 0
 543 414 568 428 653 428 c 0
 672 428 687 432 698 432 c 0
 724 432 728 427 728 404 c 0
 728 398 723 287 723 153 c 0
 723 74 729 49 751 49 c 0
 760 49 769 50 777 50 c 0
 791 50 801 46 801 31 c 0
 801 7 791 6 758 6 c 0
 723 6 652 -11 640 -11 c 0
 625 -11 626 52 619 52 c 0
 610 52 557 -32 452 -32 c 0
 336 -32 264 21 264 144 c 0
 264 308 266 290 266 326 c 0
 266 356 245 370 235 370 c 2
 217 370 l 2
 206 370 199 374 199 391 c 0
EndSplineSet
EndChar
StartChar: v
Encoding: 118 118 57
Width: 1000
Flags: MW
LayerCount: 2
Back
Fore
SplineSet
196 423 m 0
 196 433 212 435 220 435 c 0
 229 435 262 429 316 429 c 0
 355 429 355 428 394 428 c 0
 411 428 431 432 446 432 c 0
 459 432 470 426 470 415 c 0
 470 390 460 389 446 389 c 0
 428 389 404 388 404 364 c 0
 404 345 428 305 474 218 c 0
 495 178 525 109 534 109 c 0
 547 109 676 342 676 371 c 0
 676 423 602 387 602 420 c 0
 602 430 618 432 644 432 c 0
 666 432 670 430 706 430 c 0
 732 430 753 432 768 432 c 0
 798 432 804 428 804 416 c 0
 804 402 782 408 756 377 c 0
 678 284 532 -42 488 -42 c 0
 463 -42 487 -35 320 259 c 0
 220 435 196 396 196 423 c 0
EndSplineSet
EndChar
StartChar: w
Encoding: 119 119 58
Width: 1000
Flags: MW
LayerCount: 2
Back
Fore
SplineSet
68 423 m 0
 68 433 86 435 94 435 c 0
 104 435 137 429 192 429 c 0
 232 429 207 430 247 430 c 0
 298 430 312 430 312 420 c 0
 312 401 268 418 268 377 c 0
 268 348 293 285 329 213 c 0
 350 171 369 120 378 120 c 0
 383 120 406 162 426 197 c 0
 474 283 476 275 476 297 c 0
 476 304 465 353 450 373 c 0
 416 419 393 405 393 422 c 0
 393 430 403 430 410 430 c 0
 446 430 484 428 550 428 c 0
 579 428 571 429 586 429 c 0
 610 429 611 412 611 407 c 0
 611 393 607 394 596 392 c 0
 583 391 566 387 566 367 c 0
 566 350 589 288 625 220 c 0
 646 180 663 132 672 132 c 0
 685 132 799 321 799 366 c 0
 799 416 744 393 744 420 c 0
 744 427 757 428 772 428 c 2
 893 428 l 2
 925 428 932 426 932 413 c 0
 932 394 904 404 878 373 c 0
 846 334 852 316 703 36 c 0
 676 -15 662 -44 647 -44 c 0
 610 -44 521 229 499 229 c 0
 486 229 366 -39 326 -39 c 0
 307 -39 307 -18 181 259 c 0
 149 330 156 353 91 401 c 0
 75 413 68 410 68 423 c 0
EndSplineSet
EndChar
StartChar: x
Encoding: 120 120 59
Width: 1000
Flags: MW
LayerCount: 2
Back
Fore
SplineSet
168 14 m 0
 168 26 181 19 230 42 c 0
 312 81 398 159 442 196 c 0
 445 199 448 201 448 207 c 0
 448 217 391 263 334 320 c 0
 288 365 242 393 230 394 c 0
 196 399 172 413 172 425 c 0
 172 433 181 437 190 437 c 0
 246 437 244 432 296 432 c 0
 338 432 367 436 406 436 c 0
 437 436 442 432 442 423 c 0
 442 409 408 414 408 394 c 0
 408 382 429 364 446 344 c 0
 495 286 510 265 518 265 c 0
 520 265 524 267 530 273 c 0
 616 365 622 366 622 385 c 0
 622 413 576 408 576 424 c 0
 576 429 576 436 612 436 c 0
 638 436 664 435 698 435 c 0
 724 435 752 437 792 437 c 0
 804 437 818 431 818 424 c 0
 818 405 783 422 706 364 c 0
 641 315 552 245 552 238 c 0
 552 231 561 233 672 129 c 0
 703 100 752 49 816 35 c 0
 828 32 832 31 832 17 c 0
 832 3 827 -1 786 -1 c 0
 767 -1 743 2 708 2 c 0
 677 2 653 -1 628 -1 c 2
 614 -1 l 2
 583 -1 568 0 568 10 c 0
 568 23 604 19 604 41 c 0
 604 73 537 125 498 177 c 0
 493 183 492 187 488 187 c 0
 484 187 478 178 476 176 c 0
 426 119 384 90 384 58 c 0
 384 10 430 39 430 9 c 0
 430 3 431 -1 374 -1 c 0
 349 -1 332 4 302 4 c 0
 274 4 252 -2 230 -2 c 0
 193 -2 168 1 168 14 c 0
EndSplineSet
EndChar
StartChar: y
Encoding: 121 121 60
Width: 1000
Flags: MW
LayerCount: 2
Back
Fore
SplineSet
234 419 m 0
 234 428 252 431 260 431 c 0
 334 431 339 428 398 428 c 0
 432 428 437 431 474 431 c 0
 488 431 500 422 500 414 c 0
 500 390 491 387 476 387 c 2
 460 387 l 2
 445 387 444 370 444 359 c 0
 444 344 471 309 520 215 c 0
 543 171 557 144 566 144 c 0
 574 144 648 326 648 362 c 0
 648 428 586 385 586 420 c 0
 586 424 586 432 604 432 c 0
 631 432 666 431 684 431 c 0
 701 431 738 432 746 432 c 0
 760 432 766 427 766 419 c 0
 766 401 736 408 724 391 c 0
 713 375 689 317 668 262 c 2
 576 19 l 2
 517 -137 500 -198 484 -198 c 0
 479 -198 483 -199 436 -199 c 0
 430 -199 416 -197 416 -186 c 0
 416 -175 512 -71 512 8 c 0
 512 53 357 287 310 358 c 0
 277 408 234 392 234 419 c 0
EndSplineSet
EndChar
StartChar: z
Encoding: 122 122 61
Width: 1000
Flags: MW
LayerCount: 2
Back
Fore
SplineSet
337 -2 m 0
 337 16 342 19 371 61 c 0
 425 140 567 347 567 362 c 0
 567 364 557 367 544 367 c 0
 523 367 449 357 422 355 c 0
 381 353 361 285 347 285 c 0
 345 285 339 287 339 298 c 0
 339 349 350 397 353 422 c 0
 354 434 363 444 373 444 c 0
 384 444 418 440 485 440 c 0
 547 440 592 444 638 444 c 0
 644 444 651 440 651 434 c 0
 651 418 627 382 620 371 c 0
 508 204 433 101 433 73 c 0
 433 66 437 64 455 64 c 0
 474 64 493 66 504 66 c 0
 596 66 596 115 613 135 c 0
 619 142 625 147 639 147 c 0
 648 147 663 143 663 131 c 0
 663 130 649 86 638 59 c 0
 626 30 625 -14 605 -14 c 2
 485 -14 l 2
 469 -14 438 -16 408 -16 c 2
 390 -16 l 2
 359 -16 363 -17 357 -17 c 0
 346 -17 337 -13 337 -2 c 0
EndSplineSet
EndChar
StartChar: braceleft
Encoding: 123 123 91
Width: 1000
Flags: MW
LayerCount: 2
Back
Fore
SplineSet
724 266 m 0
 724 299 779 288 779 322 c 0
 779 455 773 598 773 748 c 0
 773 763 785 767 794 767 c 0
 817 767 838 759 867 759 c 0
 909 759 924 768 945 768 c 0
 953 768 966 765 966 753 c 0
 966 697 893 669 867 669 c 0
 863 669 860 664 860 660 c 0
 858 516 856 352 856 239 c 0
 856 146 860 -2 860 -121 c 0
 860 -131 901 -130 933 -147 c 0
 940 -151 967 -168 967 -188 c 0
 967 -192 966 -197 958 -197 c 0
 952 -197 920 -188 873 -188 c 0
 811 -188 811 -202 786 -202 c 0
 778 -202 772 -197 772 -190 c 0
 772 -56 776 81 776 199 c 0
 776 241 724 235 724 266 c 0
EndSplineSet
EndChar
StartChar: bar
Encoding: 124 124 92
Width: 1000
Flags: MW
LayerCount: 2
Back
Fore
SplineSet
460 -87 m 2
 460 72 469 372 469 570 c 0
 469 671 468 721 468 738 c 0
 468 755 477 762 505 762 c 0
 533 762 538 754 538 737 c 0
 538 731 536 723 536 714 c 0
 536 698 540 652 540 559 c 0
 540 402 532 160 532 10 c 0
 532 -32 532 -87 534 -137 c 0
 534 -142 535 -152 535 -163 c 2
 535 -171 l 2
 535 -190 534 -209 510 -209 c 0
 465 -209 460 -203 460 -148 c 2
 460 -87 l 2
EndSplineSet
EndChar
StartChar: asciitilde
Encoding: 126 126 94
Width: 1000
Flags: MW
LayerCount: 2
Back
Fore
SplineSet
258 164 m 0
 258 168 332 301 416 301 c 0
 485 301 523 234 592 234 c 0
 664 234 696 305 712 305 c 0
 732 305 742 295 742 283 c 0
 742 276 664 149 566 149 c 0
 486 149 459 219 396 219 c 0
 327 219 302 141 288 141 c 0
 268 141 258 146 258 164 c 0
EndSplineSet
EndChar
StartChar: cent
Encoding: 162 162 95
Width: 1000
Flags: MW
LayerCount: 2
Back
Fore
SplineSet
277 191 m 0
 277 300 347 404 461 441 c 0
 507 455 508 442 508 473 c 2
 508 513 l 2
 508 520 520 524 532 524 c 0
 548 524 568 520 568 515 c 2
 568 469 l 2
 568 456 576 466 631 455 c 0
 644 453 657 449 670 442 c 0
 681 436 685 437 685 382 c 0
 685 368 684 338 674 338 c 0
 654 338 668 364 591 402 c 0
 579 408 575 409 572 409 c 0
 569 409 566 406 566 389 c 0
 564 136 564 110 564 78 c 0
 564 70 564 64 580 64 c 0
 660 64 699 116 712 116 c 0
 718 116 723 109 723 102 c 0
 723 88 677 -5 575 -23 c 0
 563 -24 562 -23 562 -42 c 2
 562 -121 l 2
 562 -133 546 -136 530 -136 c 0
 521 -136 505 -134 505 -126 c 2
 505 -55 l 2
 505 -35 499 -53 433 -32 c 0
 337 -2 277 75 277 191 c 0
390 257 m 0
 390 135 488 78 500 78 c 0
 503 78 505 81 505 93 c 0
 505 125 504 220 506 409 c 0
 506 423 505 423 489 423 c 0
 469 423 390 396 390 257 c 0
EndSplineSet
EndChar
StartChar: sterling
Encoding: 163 163 96
Width: 1000
Flags: MW
LayerCount: 2
Back
Fore
SplineSet
178 40 m 0
 178 70 201 109 268 109 c 0
 318 109 366 77 374 77 c 0
 382 81 400 115 400 144 c 0
 400 200 349 282 338 300 c 0
 327 317 328 321 304 321 c 0
 287 321 259 320 198 320 c 0
 191 320 180 324 180 353 c 0
 180 382 188 386 198 386 c 2
 278 386 l 2
 299 386 302 386 302 387 c 0
 302 393 256 460 256 532 c 0
 256 672 391 728 516 728 c 0
 626 728 732 682 732 617 c 0
 732 592 692 563 672 563 c 0
 642 563 640 597 608 628 c 0
 586 656 538 673 490 673 c 0
 424 673 360 642 360 567 c 0
 360 503 395 444 416 406 c 0
 424 389 427 387 438 387 c 2
 622 387 l 2
 647 387 646 381 646 353 c 0
 646 330 645 321 620 321 c 2
 478 321 l 2
 468 321 452 320 452 317 c 0
 452 312 494 251 494 193 c 0
 494 120 438 65 434 59 c 1
 447 60 521 67 598 67 c 0
 762 67 786 155 806 155 c 0
 814 155 822 148 822 138 c 0
 822 99 776 -35 628 -35 c 0
 510 -35 390 26 380 31 c 0
 361 29 332 -26 254 -26 c 0
 203 -26 178 7 178 40 c 0
236 38 m 0
 236 28 254 16 282 16 c 0
 322 16 355 56 358 62 c 1
 352 59 307 53 274 53 c 0
 252 53 236 50 236 38 c 0
EndSplineSet
EndChar
StartChar: yen
Encoding: 165 165 97
Width: 1000
Flags: MW
LayerCount: 2
Back
Fore
SplineSet
105 687 m 0
 105 710 117 713 167 713 c 0
 180 713 208 710 225 710 c 0
 248 710 307 712 335 712 c 0
 370 712 385 707 385 700 c 0
 385 679 343 684 343 665 c 0
 343 635 384 590 405 562 c 0
 453 497 507 423 515 423 c 2
 524 423 l 2
 540 423 555 446 607 504 c 0
 652 554 709 614 709 641 c 0
 709 700 635 667 635 701 c 0
 635 711 648 713 672 713 c 0
 687 713 706 712 727 712 c 0
 787 712 779 710 830 710 c 0
 867 710 895 709 895 695 c 0
 895 685 866 685 838 668 c 0
 780 633 717 563 659 495 c 2
 618 448 l 2
 602 430 591 423 591 419 c 0
 591 416 592 416 724 416 c 0
 731 416 741 407 741 381 c 0
 741 352 733 350 725 350 c 0
 584 350 600 349 569 349 c 0
 553 349 542 342 542 263 c 0
 542 254 543 252 552 252 c 0
 555 252 561 254 568 254 c 2
 709 254 l 2
 735 254 735 242 735 218 c 0
 735 198 734 185 706 185 c 0
 647 185 590 184 561 184 c 0
 544 184 542 182 542 172 c 0
 542 168 543 155 543 129 c 2
 543 108 l 2
 543 45 583 38 596 38 c 0
 599 38 613 32 616 32 c 0
 626 32 631 23 631 15 c 0
 631 -5 623 -7 610 -7 c 0
 567 -7 530 -6 497 -6 c 0
 440 -6 375 -13 358 -13 c 0
 332 -13 329 -5 329 6 c 0
 329 36 348 26 369 35 c 0
 389 40 410 56 410 90 c 0
 410 97 413 141 413 173 c 0
 413 184 411 185 396 185 c 2
 333 185 l 2
 298 185 268 186 258 186 c 0
 252 186 244 194 244 220 c 0
 244 249 250 252 257 252 c 2
 278 252 l 1
 377 252 l 1
 392 252 l 2
 410 252 415 254 415 266 c 0
 415 272 413 279 413 293 c 0
 413 319 404 346 386 348 c 0
 382 348 377 349 371 349 c 2
 271 349 l 2
 248 349 247 360 247 384 c 0
 247 404 248 416 273 416 c 0
 364 416 364 416 364 418 c 0
 364 420 359 427 350 440 c 2
 252 576 l 2
 189 664 159 667 130 667 c 0
 121 667 105 667 105 687 c 0
EndSplineSet
EndChar
StartChar: brokenbar
Encoding: 166 166 98
Width: 1000
Flags: MW
LayerCount: 2
Back
Fore
SplineSet
461 -148 m 0
 461 -101 464 -124 464 176 c 0
 464 193 475 201 503 201 c 0
 531 201 535 193 535 176 c 0
 535 -151 536 -119 536 -171 c 0
 536 -190 535 -209 511 -209 c 0
 466 -209 461 -203 461 -148 c 0
469 414 m 2
 469 738 l 2
 469 755 478 762 506 762 c 0
 534 762 539 754 539 737 c 2
 539 391 l 2
 539 372 539 353 515 353 c 0
 470 353 469 359 469 414 c 2
EndSplineSet
EndChar
StartChar: section
Encoding: 167 167 99
Width: 1000
Flags: MW
LayerCount: 2
Back
Fore
SplineSet
258 285 m 0
 258 401 381 407 381 416 c 0
 381 429 278 424 278 561 c 0
 278 659 370 729 490 729 c 0
 579 729 607 688 633 688 c 0
 637 688 649 699 658 699 c 0
 665 699 677 695 678 688 c 0
 686 641 700 564 700 550 c 0
 700 526 693 520 687 520 c 0
 653 520 674 607 575 655 c 0
 553 666 525 673 489 673 c 0
 402 673 393 611 393 575 c 0
 393 552 422 520 446 509 c 0
 549 463 742 475 742 276 c 0
 742 209 718 188 686 156 c 0
 657 127 649 136 649 129 c 0
 649 120 687 110 718 54 c 0
 729 34 736 13 736 -3 c 0
 736 -124 626 -193 487 -193 c 0
 427 -193 383 -189 310 -152 c 0
 284 -139 260 11 260 20 c 0
 260 36 268 46 283 46 c 0
 294 46 305 42 310 35 c 0
 314 26 361 -125 491 -125 c 0
 571 -125 601 -98 601 -21 c 0
 601 99 258 28 258 285 c 0
383 307 m 0
 383 272 401 236 427 220 c 0
 459 201 590 157 595 157 c 0
 611 157 629 203 629 254 c 0
 629 296 615 326 548 350 c 2
 548 350 448 389 437 389 c 0
 425 389 383 369 383 307 c 0
EndSplineSet
EndChar
StartChar: dieresis
Encoding: 168 168 100
Width: 1000
Flags: MW
LayerCount: 2
Back
Fore
SplineSet
324 591 m 0
 324 617 363 668 396 668 c 0
 431 668 468 621 468 591 c 0
 468 555 416 511 402 511 c 0
 358 511 324 567 324 591 c 0
532 591 m 0
 532 617 571 668 604 668 c 0
 639 668 676 621 676 591 c 0
 676 555 624 511 610 511 c 0
 566 511 532 567 532 591 c 0
EndSplineSet
EndChar
StartChar: logicalnot
Encoding: 172 172 101
Width: 1000
Flags: MW
LayerCount: 2
Back
Fore
SplineSet
256 217 m 0
 256 243 267 243 276 243 c 2
 724 243 l 2
 742 243 744 241 744 222 c 2
 744 45 l 2
 744 34 740 28 720 28 c 0
 691 28 676 28 676 48 c 2
 676 159 l 2
 676 173 666 176 650 176 c 2
 274 176 l 2
 255 176 256 188 256 217 c 0
EndSplineSet
EndChar
StartChar: degree
Encoding: 176 176 102
Width: 1000
Flags: MW
LayerCount: 2
Back
Fore
SplineSet
30 611 m 0
 30 658 79 724 153 724 c 0
 240 724 272 646 272 605 c 0
 272 524 174 492 152 492 c 0
 43 492 30 578 30 611 c 0
93 609 m 0
 93 579 117 559 152 559 c 0
 162 559 209 568 209 608 c 0
 209 626 201 657 152 657 c 0
 125 657 93 637 93 609 c 0
EndSplineSet
EndChar
StartChar: plusminus
Encoding: 177 177 103
Width: 1000
Flags: MW
LayerCount: 2
Back
Fore
SplineSet
256 87 m 0
 256 114 257 128 276 128 c 2
 724 128 l 2
 740 128 744 121 744 98 c 0
 744 75 743 61 722 61 c 2
 274 61 l 2
 262 61 256 64 256 87 c 0
256 324 m 0
 256 342 259 357 274 357 c 2
 456 357 l 2
 465 357 466 361 466 367 c 2
 466 376 l 1
 466 506 l 2
 466 517 476 521 490 521 c 0
 526 521 532 518 532 504 c 2
 532 376 l 1
 532 368 l 2
 532 362 534 357 544 357 c 2
 728 357 l 2
 737 357 744 354 744 334 c 0
 744 304 743 289 722 289 c 2
 544 289 l 2
 534 289 532 283 532 274 c 2
 532 159 l 2
 532 148 523 146 508 146 c 0
 476 146 466 148 466 159 c 2
 466 274 l 2
 466 285 465 289 450 289 c 2
 274 289 l 2
 257 289 256 301 256 324 c 0
EndSplineSet
EndChar
StartChar: acute
Encoding: 180 180 104
Width: 1000
Flags: MW
LayerCount: 2
Back
Fore
SplineSet
389 451 m 0
 389 472 424 491 502 679 c 0
 512 703 527 708 533 708 c 0
 539 708 611 701 611 669 c 0
 611 637 528 546 466 481 c 0
 444 457 419 434 407 434 c 0
 398 434 389 442 389 451 c 0
EndSplineSet
EndChar
StartChar: paragraph
Encoding: 182 182 105
Width: 1000
Flags: MW
LayerCount: 2
Back
Fore
SplineSet
235 504 m 0
 235 640 377 721 490 721 c 0
 558 721 606 722 661 722 c 0
 684 722 710 726 738 726 c 2
 753 726 l 2
 758 726 765 718 765 715 c 0
 765 699 737 702 720 684 c 0
 712 675 707 658 707 617 c 0
 707 412 702 296 702 91 c 0
 702 -66 607 -193 458 -193 c 0
 425 -193 402 -191 373 -176 c 0
 368 -174 363 -157 363 -147 c 0
 363 -124 384 -73 401 -73 c 0
 427 -73 412 -147 501 -147 c 0
 582 -147 586 -16 586 56 c 0
 586 68 587 78 587 86 c 0
 587 150 583 211 583 299 c 0
 583 311 567 313 549 313 c 0
 418 313 235 330 235 504 c 0
510 504 m 0
 510 419 519 357 558 357 c 0
 569 357 585 363 585 375 c 2
 585 409 l 2
 585 449 581 483 581 518 c 0
 581 648 586 635 586 648 c 0
 586 675 579 687 558 687 c 0
 548 687 526 682 521 667 c 0
 510 633 510 624 510 504 c 0
621 504 m 0
 621 453 622 404 622 356 c 0
 622 193 627 63 627 30 c 0
 627 -36 622 -28 622 -43 c 0
 622 -50 623 -54 629 -54 c 0
 636 -54 666 17 666 123 c 0
 666 337 663 483 663 674 c 0
 663 685 652 692 641 692 c 0
 633 692 623 687 623 679 c 0
 621 616 621 557 621 504 c 0
EndSplineSet
EndChar
StartChar: multiply
Encoding: 215 215 106
Width: 1000
Flags: MW
LayerCount: 2
Back
Fore
SplineSet
306 374 m 0
 306 382 328 403 338 403 c 0
 342 403 346 400 352 395 c 2
 482 280 l 2
 489 274 494 268 502 268 c 0
 505 268 510 269 514 273 c 2
 652 398 l 2
 656 402 663 404 666 404 c 0
 674 404 694 384 694 375 c 0
 694 371 690 365 684 358 c 2
 564 224 l 2
 559 218 556 213 556 210 c 0
 556 206 560 200 564 196 c 2
 688 58 l 2
 693 52 694 48 694 45 c 0
 694 36 672 15 664 15 c 0
 661 15 656 17 650 22 c 2
 514 146 l 2
 508 151 504 153 500 153 c 0
 494 153 490 149 482 142 c 2
 350 22 l 2
 344 17 339 15 336 15 c 0
 328 15 308 35 308 44 c 0
 308 48 311 52 316 58 c 2
 436 193 l 2
 442 200 444 206 444 210 c 0
 444 216 442 220 438 224 c 2
 314 362 l 2
 310 366 306 371 306 374 c 0
EndSplineSet
EndChar
StartChar: divide
Encoding: 247 247 107
Width: 1000
Flags: MW
LayerCount: 2
Back
Fore
SplineSet
248 213 m 0
 248 233 248 243 268 243 c 2
 737 243 l 2
 754 243 754 232 754 211 c 0
 754 185 754 176 731 176 c 2
 267 176 l 2
 240 176 248 187 248 213 c 0
427 344 m 0
 427 377 457 406 490 406 c 0
 523 406 550 379 550 346 c 0
 550 313 521 284 488 284 c 0
 455 284 427 311 427 344 c 0
434 76 m 0
 434 109 463 136 496 136 c 0
 529 136 557 107 557 74 c 0
 557 41 530 14 497 14 c 0
 464 14 434 41 434 76 c 0
EndSplineSet
EndChar
StartChar: quoteleft
Encoding: 8216 8216 108
Width: 1000
Flags: MW
LayerCount: 2
Back
Fore
SplineSet
803 523 m 0
 803 706 915 785 940 785 c 0
 950 785 957 772 957 767 c 0
 957 738 901 728 901 615 c 0
 901 495 970 505 970 451 c 0
 970 439 953 423 936 402 c 0
 921 384 909 355 887 355 c 0
 877 355 803 400 803 523 c 0
EndSplineSet
EndChar
StartChar: quotedblleft
Encoding: 8220 8220 110
Width: 1000
Flags: MW
LayerCount: 2
Back
Fore
SplineSet
574 523 m 0
 574 706 687 785 712 785 c 0
 722 785 729 772 729 767 c 0
 729 738 673 728 673 615 c 0
 673 495 742 505 742 451 c 0
 742 439 725 423 708 402 c 0
 693 384 681 355 659 355 c 0
 649 355 574 400 574 523 c 0
803 523 m 0
 803 706 915 785 940 785 c 0
 950 785 957 772 957 767 c 0
 957 738 901 728 901 615 c 0
 901 495 970 505 970 451 c 0
 970 439 953 423 936 402 c 0
 921 384 909 355 887 355 c 0
 877 355 803 400 803 523 c 0
EndSplineSet
EndChar
StartChar: quotedblright
Encoding: 8221 8221 111
Width: 1000
Flags: MW
LayerCount: 2
Back
Fore
SplineSet
56 689 m 0
 56 701 73 717 90 738 c 0
 105 756 118 785 140 785 c 0
 150 785 223 740 223 617 c 0
 223 434 111 355 86 355 c 0
 76 355 69 368 69 373 c 0
 69 402 125 413 125 526 c 0
 125 646 56 635 56 689 c 0
251 689 m 0
 251 701 268 717 285 738 c 0
 300 756 312 785 334 785 c 0
 344 785 419 740 419 617 c 0
 419 434 306 355 281 355 c 0
 271 355 264 368 264 373 c 0
 264 402 320 413 320 526 c 0
 320 646 251 635 251 689 c 0
EndSplineSet
EndChar
StartChar: dagger
Encoding: 8224 8224 112
Width: 1000
Flags: MW
LayerCount: 2
Back
Fore
SplineSet
262 540 m 0
 262 564 262 631 282 631 c 0
 291 631 348 556 449 556 c 0
 456 556 462 557 462 564 c 0
 462 655 397 737 397 754 c 0
 397 767 425 778 487 778 c 0
 511 778 579 778 579 756 c 0
 579 746 515 656 515 562 c 0
 515 556 519 554 522 554 c 0
 615 554 698 634 715 634 c 0
 728 634 738 605 738 544 c 0
 738 520 738 453 716 453 c 0
 706 453 656 514 524 514 c 0
 518 514 517 514 517 508 c 0
 517 348 583 321 583 310 c 0
 583 282 518 305 518 -218 c 0
 518 -241 511 -244 494 -244 c 2
 488 -244 l 2
 473 -244 467 -241 467 -218 c 0
 467 303 395 284 395 308 c 0
 395 320 459 336 459 510 c 0
 459 513 457 514 452 514 c 0
 354 514 298 450 283 450 c 0
 271 450 262 479 262 540 c 0
EndSplineSet
EndChar
StartChar: daggerdbl
Encoding: 8225 8225 113
Width: 1000
Flags: MW
LayerCount: 2
Back
Fore
SplineSet
260 25 m 0
 260 50 260 119 280 119 c 0
 289 119 386 47 452 47 c 0
 458 47 462 49 462 53 c 0
 462 185 398 268 398 292 c 0
 398 302 458 323 458 500 c 0
 458 502 455 504 450 504 c 0
 371 504 297 438 282 438 c 0
 270 438 262 467 262 528 c 0
 262 552 262 619 282 619 c 0
 291 619 353 543 448 543 c 0
 455 543 460 544 460 551 c 0
 460 661 394 725 394 742 c 0
 394 756 422 766 484 766 c 0
 508 766 576 766 576 743 c 0
 576 733 512 662 512 549 c 0
 512 543 517 542 520 542 c 0
 615 542 697 622 714 622 c 0
 727 622 738 593 738 532 c 0
 738 508 738 441 716 441 c 0
 706 441 635 504 522 504 c 0
 516 504 514 503 514 499 c 0
 514 331 574 299 574 290 c 0
 574 284 514 204 514 55 c 0
 514 52 518 50 522 50 c 0
 622 50 701 122 718 122 c 0
 731 122 740 89 740 26 c 0
 740 1 740 -68 718 -68 c 0
 711 -68 629 -2 532 -2 c 0
 523 -2 514 -3 514 -17 c 0
 514 -131 586 -188 586 -205 c 0
 586 -218 553 -228 490 -228 c 0
 464 -228 394 -228 394 -206 c 0
 394 -199 460 -111 460 -13 c 0
 460 -6 457 -1 450 -1 c 0
 402 -1 295 -71 280 -71 c 0
 268 -71 260 -38 260 25 c 0
EndSplineSet
EndChar
StartChar: perthousand
Encoding: 8240 8240 118
Width: 1000
Flags: MW
LayerCount: 2
Back
Fore
SplineSet
-5 349 m 0
 -5 450 75 593 196 593 c 0
 272 593 285 536 347 536 c 0
 429 536 530 615 560 640 c 0
 566 645 573 647 578 647 c 0
 585 647 587 643 587 638 c 0
 587 631 583 622 580 617 c 0
 203 -1 152 -86 141 -90 c 0
 139 -91 133 -92 131 -92 c 0
 115 -92 100 -79 100 -68 c 0
 100 -54 109 -43 139 3 c 2
 293 243 l 2
 418 429 440 495 440 503 c 0
 440 506 438 507 436 507 c 0
 429 507 431 490 367 490 c 0
 342 490 319 499 315 499 c 0
 314 499 314 499 314 498 c 0
 314 496 317 489 317 479 c 0
 317 404 307 364 262 301 c 0
 238 266 196 219 112 219 c 0
 74 219 -5 257 -5 349 c 0
103 373 m 0
 103 303 118 261 145 261 c 0
 193 261 219 372 219 460 c 0
 219 510 206 548 186 548 c 0
 130 548 103 454 103 373 c 0
332 70 m 0
 332 178 410 309 542 309 c 0
 622 309 656 252 656 181 c 0
 656 68 571 -78 460 -78 c 0
 374 -78 332 -9 332 70 c 0
439 83 m 0
 439 14 454 -30 481 -30 c 0
 526 -30 557 82 557 169 c 0
 557 218 542 261 522 261 c 0
 466 261 439 164 439 83 c 0
681 61 m 0
 681 170 759 301 891 301 c 0
 971 301 1005 243 1005 172 c 0
 1005 59 920 -88 809 -88 c 0
 723 -88 681 -18 681 61 c 0
788 74 m 0
 788 5 803 -38 830 -38 c 0
 875 -38 906 74 906 161 c 0
 906 210 891 253 871 253 c 0
 815 253 788 154 788 74 c 0
EndSplineSet
EndChar
StartChar: second
Encoding: 8243 8243 116
Width: 1000
Flags: MW
LayerCount: 2
Back
Fore
SplineSet
14 367 m 0
 14 370 15 374 18 379 c 2
 194 725 l 2
 203 742 225 751 263 751 c 0
 283 751 301 748 316 741 c 0
 336 734 346 724 346 712 c 0
 346 707 343 701 338 696 c 2
 56 371 l 2
 48 363 42 359 34 358 c 0
 20 358 14 361 14 367 c 0
221 367 m 0
 221 370 221 374 224 379 c 2
 438 725 l 2
 447 740 487 751 511 751 c 0
 524 751 541 747 552 741 c 0
 565 734 572 724 572 712 c 0
 572 707 570 701 567 696 c 2
 249 371 l 2
 242 364 239 359 234 358 c 0
 225 358 221 361 221 367 c 0
EndSplineSet
Colour: ffff00
EndChar
StartChar: overline
Encoding: 8254 8254 114
Width: 1000
Flags: MW
LayerCount: 2
Back
Fore
SplineSet
0 708 m 0
 0 728 2 740 29 740 c 2
 976 740 l 2
 1000 740 1000 729 1000 708 c 0
 1000 682 1000 672 968 672 c 2
 27 672 l 2
 0 672 0 682 0 708 c 0
EndSplineSet
EndChar
StartChar: euro
Encoding: 8364 8364 127
Width: 1000
Flags: MW
LayerCount: 2
Back
Fore
SplineSet
226 278 m 1
 244 350 l 1
 314 350 l 1
 360 500 497 544 572 544 c 0
 652 544 711 516 774 446 c 1
 761 419 752 405 752 405 c 1
 742 419 687 472 586 472 c 0
 519 472 425 443 384 350 c 1
 726 350 l 1
 706 278 l 1
 374 278 l 1
 374 277 374 274 374 271 c 0
 374 268 374 265 374 264 c 1
 690 264 l 1
 670 191 l 1
 384 191 l 1
 419 105 516 69 584 69 c 0
 693 69 750 129 752 131 c 2
 756 131 l 1
 756 81 l 1
 707 29 650 -3 580 -3 c 0
 489 -3 362 42 314 191 c 1
 228 191 l 1
 248 264 l 1
 302 264 l 1
 302 278 l 1
 226 278 l 1
EndSplineSet
EndChar
StartChar: celsius
Encoding: 8451 8451 119
Width: 1000
Flags: MW
LayerCount: 2
Back
Fore
SplineSet
30 611 m 0
 30 658 79 724 153 724 c 0
 240 724 272 646 272 605 c 0
 272 524 174 492 152 492 c 0
 43 492 30 578 30 611 c 0
93 609 m 0
 93 579 117 559 152 559 c 0
 162 559 209 568 209 608 c 0
 209 626 201 657 152 657 c 0
 125 657 93 637 93 609 c 0
226 322 m 0
 226 541 366 724 631 724 c 0
 778 724 898 631 908 631 c 0
 915 631 921 641 930 641 c 0
 936 641 946 636 946 625 c 0
 948 561 961 502 961 490 c 0
 961 475 953 473 949 473 c 0
 943 473 936 479 932 486 c 0
 874 591 782 662 652 662 c 0
 487 662 367 550 367 383 c 0
 367 208 456 38 699 38 c 0
 823 38 901 124 941 183 c 0
 945 190 949 189 956 189 c 0
 962 189 965 182 965 174 c 0
 965 148 950 90 946 67 c 0
 944 57 938 52 929 48 c 0
 836 2 764 -32 653 -32 c 0
 330 -32 226 160 226 322 c 0
EndSplineSet
EndChar
StartChar: angstrom
Encoding: 8491 8491 120
Width: 1000
Flags: MW
LayerCount: 2
Back
Fore
SplineSet
408 855 m 0
 408 891 446 942 504 942 c 0
 573 942 598 882 598 850 c 0
 598 787 522 763 504 763 c 0
 419 763 408 829 408 855 c 0
464 853 m 0
 464 835 481 823 504 823 c 0
 511 823 540 828 540 852 c 0
 540 863 536 882 504 882 c 0
 486 882 464 869 464 853 c 0
26 13 m 0
 26 28 33 37 44 41 c 0
 115 63 108 82 472 701 c 0
 483 721 488 724 508 724 c 0
 534 724 517 722 596 563 c 0
 654 447 831 121 838 104 c 0
 883 0 974 49 974 13 c 0
 974 8 971 -2 936 -2 c 0
 904 -2 849 4 810 4 c 0
 759 4 719 0 678 0 c 0
 619 0 612 2 612 13 c 0
 612 33 662 22 662 56 c 0
 662 85 615 194 594 228 c 0
 590 235 587 243 554 243 c 0
 533 243 497 240 432 240 c 2
 380 240 l 2
 318 240 287 236 276 214 c 0
 240 145 212 98 212 73 c 0
 212 0 286 40 286 12 c 0
 286 5 283 -1 262 -1 c 0
 241 -1 213 0 166 0 c 0
 114 0 95 -5 66 -5 c 0
 42 -5 26 -2 26 13 c 0
340 333 m 0
 340 321 358 320 400 320 c 2
 430 320 l 2
 474 320 526 322 526 322 c 2
 552 323 552 324 552 332 c 0
 552 340 467 516 448 516 c 0
 435 516 340 341 340 333 c 0
EndSplineSet
EndChar
StartChar: minus
Encoding: 8722 8722 117
Width: 1000
Flags: MW
LayerCount: 2
Back
Fore
SplineSet
268 213 m 0
 268 233 268 243 286 243 c 2
 717 243 l 2
 733 243 733 232 733 211 c 0
 733 185 733 176 712 176 c 2
 285 176 l 2
 258 176 268 187 268 213 c 0
EndSplineSet
EndChar
StartChar: approxequalorimage
Encoding: 8786 8786 126
Width: 1000
Flags: MW
LayerCount: 2
Back
Fore
SplineSet
227 139 m 0
 227 159 227 171 248 171 c 2
 755 171 l 2
 774 171 774 160 774 139 c 0
 774 113 774 103 749 103 c 2
 247 103 l 2
 220 103 227 113 227 139 c 0
227 286 m 0
 227 306 227 316 248 316 c 2
 755 316 l 2
 774 316 774 305 774 284 c 0
 774 258 774 249 749 249 c 2
 247 249 l 2
 220 249 227 260 227 286 c 0
308 394 m 0
 308 427 338 456 371 456 c 0
 404 456 431 429 431 396 c 0
 431 363 402 334 369 334 c 0
 336 334 308 361 308 394 c 0
554 26 m 0
 554 59 582 86 615 86 c 0
 648 86 677 57 677 24 c 0
 677 -9 650 -36 617 -36 c 0
 584 -36 554 -9 554 26 c 0
EndSplineSet
EndChar
StartChar: notequal
Encoding: 8800 8800 122
Width: 1000
Flags: MW
LayerCount: 2
Back
Fore
SplineSet
370 -19 m 0
 370 -10 386 16 398 38 c 2
 398 38 413 64 434 103 c 1
 273 103 l 2
 246 103 254 113 254 139 c 0
 254 159 253 171 274 171 c 2
 459 171 l 1
 471 196 484 223 497 249 c 1
 273 249 l 2
 246 249 254 260 254 286 c 0
 254 306 254 316 274 316 c 2
 513 316 l 1
 536 377 554 425 555 428 c 0
 560 443 566 446 584 446 c 0
 593 446 605 444 605 434 c 0
 605 425 596 403 591 390 c 2
 564 316 l 1
 732 316 l 2
 748 316 748 305 748 284 c 0
 748 258 748 249 727 249 c 2
 548 249 l 1
 511 171 l 1
 732 171 l 2
 748 171 748 160 748 139 c 0
 748 113 748 103 727 103 c 2
 495 103 l 1
 457 -1 l 2
 441 -31 431 -32 409 -32 c 0
 391 -32 370 -32 370 -19 c 0
EndSplineSet
EndChar
StartChar: equivalence
Encoding: 8801 8801 125
Width: 1000
Flags: MW
LayerCount: 2
Back
Fore
SplineSet
268 64 m 0
 268 84 268 96 286 96 c 2
 717 96 l 2
 733 96 733 85 733 64 c 0
 733 38 733 28 712 28 c 2
 285 28 l 2
 258 28 268 38 268 64 c 0
268 361 m 0
 268 381 268 391 286 391 c 2
 717 391 l 2
 733 391 733 380 733 359 c 0
 733 333 733 324 712 324 c 2
 285 324 l 2
 258 324 268 335 268 361 c 0
268 213 m 0
 268 233 268 243 286 243 c 2
 717 243 l 2
 733 243 733 232 733 211 c 0
 733 185 733 176 712 176 c 2
 285 176 l 2
 258 176 268 187 268 213 c 0
EndSplineSet
EndChar
StartChar: lessoverequal
Encoding: 8806 8806 123
Width: 1000
Flags: MW
LayerCount: 2
Back
Fore
SplineSet
277 298 m 0
 277 309 268 316 292 320 c 0
 647 421 698 438 704 438 c 0
 713 438 723 432 723 400 c 0
 723 386 715 379 707 376 c 2
 424 307 l 2
 403 302 382 300 382 296 c 0
 382 292 403 289 424 284 c 2
 712 214 l 2
 718 211 723 205 723 194 c 0
 723 182 717 158 699 158 c 0
 693 158 633 175 291 273 c 0
 277 277 277 283 277 298 c 0
268 19 m 0
 268 39 268 51 286 51 c 2
 717 51 l 2
 733 51 733 40 733 19 c 0
 733 -7 733 -17 712 -17 c 2
 285 -17 l 2
 258 -17 268 -7 268 19 c 0
268 126 m 0
 268 146 268 156 286 156 c 2
 717 156 l 2
 733 156 733 145 733 124 c 0
 733 98 733 89 712 89 c 2
 285 89 l 2
 258 89 268 100 268 126 c 0
EndSplineSet
EndChar
StartChar: greateroverequal
Encoding: 8807 8807 124
Width: 1000
Flags: MW
LayerCount: 2
Back
Fore
SplineSet
723 298 m 0
 723 283 723 277 709 273 c 0
 367 175 307 158 301 158 c 0
 283 158 277 182 277 194 c 0
 277 205 282 211 288 214 c 2
 576 284 l 2
 597 289 618 292 618 296 c 0
 618 300 597 302 576 307 c 2
 293 376 l 2
 285 379 277 386 277 400 c 0
 277 432 287 438 296 438 c 0
 302 438 353 421 708 320 c 0
 732 316 723 309 723 298 c 0
732 19 m 0
 732 -7 742 -17 715 -17 c 2
 288 -17 l 2
 267 -17 267 -7 267 19 c 0
 267 40 267 51 283 51 c 2
 714 51 l 2
 732 51 732 39 732 19 c 0
732 126 m 0
 732 100 742 89 715 89 c 2
 288 89 l 2
 267 89 267 98 267 124 c 0
 267 145 267 156 283 156 c 2
 714 156 l 2
 732 156 732 146 732 126 c 0
EndSplineSet
EndChar
StartChar: zero.slash
Encoding: 63032 63032 121
Width: 1000
Flags: MW
LayerCount: 2
Back
Fore
SplineSet
177 324 m 0
 177 576 344 727 538 727 c 0
 583 727 624 719 659 705 c 1
 663 712 665 716 665 717 c 0
 672 732 680 735 705 735 c 0
 717 735 734 733 734 723 c 0
 734 714 728 697 725 691 c 2
 719 677 l 1
 789 614 823 496 823 363 c 0
 823 155 708 -26 476 -26 c 0
 425 -26 381 -19 344 -7 c 1
 338 -18 l 1
 338 -18 317 -49 297 -49 c 0
 281 -49 263 -49 263 -36 c 0
 263 -29 270 -11 277 8 c 0
 278 12 280 15 281 19 c 1
 203 81 177 201 177 324 c 0
286 403 m 0
 286 320 312 233 360 166 c 1
 427 286 522 456 588 575 c 1
 550 600 504 616 451 616 c 0
 351 616 286 535 286 403 c 0
410 113 m 1
 451 78 501 56 560 56 c 0
 668 56 721 150 721 290 c 0
 721 377 693 466 638 530 c 1
 410 113 l 1
EndSplineSet
EndChar
